mtllib materials.mtl
v -0.06479736 0.3333174 0.06720555
v -0.04364651 0.3333174 0.1024981
v -0.04364648 -0.2966596 0.1024979
v -0.06479736 -0.2966596 0.06720556
v -0.003545493 0.3333174 0.09328818
v -0.003545493 -0.2966596 0.0932882
v 8.744001E-05 0.3333174 0.0523039
v 8.741021E-05 -0.2966596 0.05230391
v -0.03776827 0.3333174 0.03618377
v -0.0377683 -0.2966596 0.03618397
v 0.0004709959 0.3356806 0.05140316
v -0.03738475 0.3356806 0.03528304
v 0.001328439 0.3633505 0.08184248
v -0.03599733 0.3804517 0.08453515
v -0.0599234 0.3633507 0.05575977
v 0.001396924 0.3366596 0.04922879
v -0.03645882 0.3366596 0.03310867
v 0.01309514 0.3757907 0.05421025
v -0.01753062 0.3999754 0.04116888
v -0.04815662 0.3757911 0.02812734
v 0.09632701 0.3366596 -0.1737005
v 0.05847117 0.3366596 -0.1898207
v 0.1080253 0.3757907 -0.168719
v 0.07739943 0.3999754 -0.1817604
v 0.04677334 0.3757911 -0.1948021
v -0.01281905 0.3066597 -0.04502574
v -0.01281902 0.3366597 -0.04502583
v 0.03899515 0.3366597 -0.02296187
v 0.03899515 0.3066597 -0.0229618
v 0.04529178 0.3066595 -0.1814902
v 0.09710595 0.3066595 -0.1594262
v 0.09710589 0.3366594 -0.1594263
v 0.04529172 0.3366594 -0.1814903
vn -0.8577569 -8.265462E-08 0.5140556
vn 0.2238382 -1.392323E-07 0.9746264
vn 0.9960943 -1.921847E-08 0.08829562
vn 0.3917859 -1.743625E-07 -0.9200565
vn -0.7539592 -9.204911E-08 -0.6569213
vn -6.733342E-07 1 -5.96857E-08
vn 0 -1 0
vn 0.361958 -0.3827227 -0.8500057
vn 0.9880329 -0.1269664 0.0875817
vn 0.2122407 0.3177401 0.9241186
vn -0.8133066 0.3177416 0.4874142
vn -0.7478588 -0.1269628 -0.6516041
vn 0.277036 0.7071069 -0.6505774
vn 0.1499353 -0.9238756 -0.3520986
vn 0.9176854 -0.3065199 0.2527824
vn 0.3882898 0.7670876 0.5106935
vn -0.6372547 0.7670935 0.07398702
vn -0.8182034 -0.3065091 -0.4864107
vn 0.3917882 1.129847E-07 -0.9200555
vn -8.030207E-07 -1 -7.118137E-08
vn 0.8750234 -0.3090218 0.372612
vn 0.5408008 0.8090125 0.2302894
vn -0.5407919 0.8090197 -0.2302854
vn -0.8750272 -0.3090099 -0.3726128
vn 0.3917889 1.222451E-07 -0.9200551
vn -0.3917862 2.520782E-06 0.9200563
vn 0.3917864 -2.458697E-06 -0.9200562
vn -0.9200556 -1.750233E-06 -0.3917879
vn 0.9200556 2.098234E-06 0.391788
vn -6.357065E-07 -1 1.480036E-06
vn 6.317964E-07 1 -1.470853E-06
vt 0.07274877 0.1722154
vt 0.06894909 0.1737939
vt 0.04478065 0.1156166
vt 0.04858032 0.1140381
vt 0.1571576 0.1049042
vt 0.1553949 0.108622
vt 0.09847122 0.08163289
vt 0.1002339 0.0779151
vt 0.1127416 0.1499031
vt 0.1096651 0.1526352
vt 0.06783285 0.1055314
vt 0.07090928 0.1027993
vt -0.1461258 0.1184595
vt -0.148346 0.1149954
vt -0.09530692 0.0810018
vt -0.09308673 0.08446588
vt -0.1497839 0.1160801
vt -0.1517384 0.1124595
vt -0.09630282 0.08253287
vt -0.09434827 0.08615347
vt 0.00856175 0.0307314
vt 0.005770425 0.03375426
vt 0.002032952 0.03203368
vt 0.002514357 0.02794744
vt 0.006549386 0.02714259
vt -0.006549434 0.02714247
vt -0.002514424 0.02794733
vt -0.002033 0.03203357
vt -0.005770474 0.03375414
vt -0.008561783 0.03073128
vt -0.1215231 0.1379821
vt -0.1186962 0.1409718
vt -0.1188821 0.1411475
vt -0.1217089 0.1381578
vt 0.09452303 0.1648301
vt 0.09786521 0.1624303
vt 0.09867014 0.1655798
vt 0.09458636 0.1650779
vt 0.1471887 0.1068004
vt 0.1489902 0.1031012
vt 0.152957 0.1063095
vt 0.1497163 0.1088446
vt 0.04359785 0.1809705
vt 0.04758187 0.1799425
vt 0.04908131 0.1828268
vt 0.04595106 0.1854972
vt -0.1560013 0.1020624
vt -0.1542687 0.1057943
vt -0.1544456 0.1059791
vt -0.1582494 0.1044106
vt -0.1141934 -0.005709631
vt -0.1149993 -0.001674833
vt -0.1190857 -0.001194505
vt -0.1208053 -0.004932436
vt -0.1177817 -0.007722939
vt -0.05276484 0.08286587
vt -0.04972237 0.08563581
vt -0.04989458 0.08582497
vt -0.05293705 0.08305503
vt 0.09913136 0.1588013
vt 0.1032266 0.159199
vt 0.1017563 0.1620983
vt 0.09901567 0.1590295
vt 0.1137106 0.04069614
vt 0.1165993 0.03776623
vt 0.1193334 0.04207353
vt 0.1154527 0.04344067
vt -0.02006735 0.1431282
vt -0.01644305 0.1411805
vt -0.01429952 0.1436245
vt -0.0167033 0.1469638
vt -0.1600682 0.08022073
vt -0.1563983 0.08208118
vt -0.156423 0.08233579
vt -0.160382 0.08345634
vt -0.1486273 0.1151758
vt -0.1464071 0.1186399
vt -0.1490156 0.1218219
vt -0.1528479 0.1203244
vt -0.1526079 0.1162169
vt -0.008807411 0.0309579
vt -0.006016084 0.03398075
vt -0.02381742 0.05041865
vt -0.02660876 0.04739578
vt 0.1114768 0.1496436
vt 0.1143938 0.1525454
vt 0.09730571 0.1697235
vt 0.09438869 0.1668217
vt 0.09719636 -0.01516749
vt 0.1009227 -0.01691198
vt 0.1111958 0.005032388
vt 0.1074695 0.006776878
vt -0.05760564 0.1186842
vt -0.05507759 0.115438
vt -0.0359607 0.1303254
vt -0.03848877 0.1335717
vt -0.1598532 0.08091863
vt -0.1559407 0.07964523
vt -0.1484417 0.1026856
vt -0.1523543 0.103959
vt -0.1486273 0.1151758
vt -0.1464071 0.1186399
vt -0.1490156 0.1218219
vt -0.1528479 0.1203244
vt -0.1526079 0.1162169
vt 0.1465797 0.1128111
vt 0.1491055 0.1144299
vt 0.1460666 0.1191713
vt 0.1435409 0.1175525
vt -0.1465797 0.1128112
vt -0.1435409 0.1175526
vt -0.1460666 0.1191714
vt -0.1491055 0.11443
vt -0.1310974 0.1343117
vt -0.1226401 0.1464965
vt -0.1251047 0.1482071
vt -0.1335619 0.1360222
vt 0.1310974 0.1343116
vt 0.1335619 0.1360222
vt 0.1251047 0.148207
vt 0.1226402 0.1464964
vt -0.01537031 0.03581203
vt -0.01154975 0.0399495
vt -0.02244671 0.05001182
vt -0.02626726 0.04587436
vt 0.01537031 0.03581203
vt 0.02626727 0.04587435
vt 0.02244672 0.05001182
vt 0.01154976 0.0399495
o group1088580684
g mesh1088580684
usemtl mat24
f 29/109/26 28/108/26 27/107/26 26/106/26
f 33/113/27 32/112/27 31/111/27 30/110/27
f 27/117/28 33/116/28 30/115/28 26/114/28
f 31/121/29 32/120/29 28/119/29 29/118/29
f 30/125/30 31/124/30 29/123/30 26/122/30
f 28/129/31 32/128/31 33/127/31 27/126/31
o group535024760
g mesh535024760
usemtl mat20
f 4/4/1 3/3/1 2/2/1 1/1/1
f 3/8/2 6/7/2 5/6/2 2/5/2
f 6/12/3 8/11/3 7/10/3 5/9/3
f 8/16/4 10/15/4 9/14/4 7/13/4
f 10/20/5 4/19/5 1/18/5 9/17/5
f 1/25/6 2/24/6 5/23/6 7/22/6 9/21/6
f 10/30/7 8/29/7 6/28/7 3/27/7 4/26/7
f 12/34/8 11/33/8 7/32/8 9/31/8
f 11/38/9 13/37/9 5/36/9 7/35/9
f 13/42/10 14/41/10 2/40/10 5/39/10
f 14/46/11 15/45/11 1/44/11 2/43/11
f 15/50/12 12/49/12 9/48/12 1/47/12
f 15/55/13 14/54/13 13/53/13 11/52/13 12/51/13
f 17/59/14 16/58/14 11/57/14 12/56/14
f 16/63/15 18/62/15 13/61/15 11/60/15
f 18/67/16 19/66/16 14/65/16 13/64/16
f 19/71/17 20/70/17 15/69/17 14/68/17
f 20/75/18 17/74/18 12/73/18 15/72/18
f 20/80/19 19/79/19 18/78/19 16/77/19 17/76/19
f 22/84/20 21/83/20 16/82/20 17/81/20
f 21/88/21 23/87/21 18/86/21 16/85/21
f 23/92/22 24/91/22 19/90/22 18/89/22
f 24/96/23 25/95/23 20/94/23 19/93/23
f 25/100/24 22/99/24 17/98/24 20/97/24
f 25/105/25 24/104/25 23/103/25 21/102/25 22/101/25
