mtllib materials.mtl
v -0.06479736 0.3333174 0.06720555
v -0.04364651 0.3333174 0.1024981
v -0.04364648 -0.2966596 0.1024979
v -0.06479736 -0.2966596 0.06720556
v -0.003545493 0.3333174 0.09328818
v -0.003545493 -0.2966596 0.0932882
v 8.744001E-05 0.3333174 0.0523039
v 8.741021E-05 -0.2966596 0.05230391
v -0.03776827 0.3333174 0.03618377
v -0.0377683 -0.2966596 0.03618397
v 0.0004709959 0.3356806 0.05140316
v -0.03738475 0.3356806 0.03528304
v 0.001328439 0.3633505 0.08184248
v -0.03599733 0.3804517 0.08453515
v -0.0599234 0.3633507 0.05575977
v 0.001396924 0.3366596 0.04922879
v -0.03645882 0.3366596 0.03310867
v 0.01309514 0.3757907 0.05421025
v -0.01753062 0.3999754 0.04116888
v -0.04815662 0.3757911 0.02812734
v 0.09632701 0.3366596 -0.1737005
v 0.05847117 0.3366596 -0.1898207
v 0.1080253 0.3757907 -0.168719
v 0.07739943 0.3999754 -0.1817604
v 0.04677334 0.3757911 -0.1948021
v -0.01281905 0.3066597 -0.04502574
v -0.01281902 0.3366597 -0.04502583
v 0.03899515 0.3366597 -0.02296187
v 0.03899515 0.3066597 -0.0229618
v 0.04529178 0.3066595 -0.1814902
v 0.09710595 0.3066595 -0.1594262
v 0.09710589 0.3366594 -0.1594263
v 0.04529172 0.3366594 -0.1814903
vn -0.8577576 -1.945924E-07 0.5140543
vn -0.857756 1.215925E-08 0.5140571
vn 0.2238406 2.213118E-08 0.9746258
vn 0.2238359 -2.891044E-07 0.9746268
vn 0.9960943 -4.49836E-08 0.08829588
vn 0.9960943 2.08849E-09 0.08829515
vn 0.3917878 -3.031108E-07 -0.9200556
vn 0.3917841 -4.02967E-08 -0.9200572
vn -0.7539598 -1.591139E-08 -0.6569206
vn -0.7539583 -1.663332E-07 -0.6569223
vn 0 1 0
vn 0 1 0
vn 0 1 0
vn 0 -1 0
vn 0 -1 0
vn 0 -1 0
vn 0.3619581 -0.3827245 -0.8500049
vn 0.3619585 -0.3827206 -0.8500065
vn 0.988033 -0.1269657 0.08758131
vn 0.9880309 -0.1269754 0.08759127
vn 0.2122407 0.3177399 0.9241186
vn 0.2122415 0.3177404 0.9241183
vn -0.8133062 0.3177422 0.4874146
vn -0.8133063 0.3177419 0.4874144
vn -0.7478561 -0.1269862 -0.6516024
vn -0.7478595 -0.1269612 -0.6516035
vn 0.2770359 0.7071061 -0.6505783
vn 0.2770363 0.7071069 -0.6505772
vn 0.277036 0.7071078 -0.6505764
vn 0.1499344 -0.9238755 -0.352099
vn 0.1499344 -0.9238755 -0.3520991
vn 0.9176852 -0.3065205 0.2527826
vn 0.9176854 -0.3065205 0.2527821
vn 0.38829 0.7670876 0.5106932
vn 0.388289 0.7670877 0.5106937
vn -0.6372553 0.7670929 0.07398713
vn -0.6372546 0.7670935 0.07398694
vn -0.8182031 -0.3065042 -0.4864144
vn -0.818204 -0.3065087 -0.48641
vn 0.3917875 -1.127609E-06 -0.9200557
vn 0.3917882 -1.210111E-07 -0.9200554
vn 0.3917882 1.463758E-06 -0.9200554
vn 0 -1 0
vn 0 -1 0
vn 0.8750235 -0.3090214 0.372612
vn 0.8750229 -0.3090234 0.3726114
vn 0.5408009 0.8090125 0.2302894
vn 0.5407996 0.8090135 0.2302892
vn -0.5407926 0.809019 -0.2302856
vn -0.5407911 0.8090202 -0.2302853
vn -0.8750274 -0.3090092 -0.3726129
vn -0.8750271 -0.3090105 -0.3726125
vn 0.3917877 -2.522395E-06 -0.9200557
vn 0.391789 -6.318375E-07 -0.9200552
vn 0.391789 3.996633E-06 -0.9200552
vn -0.3917863 3.131189E-06 0.9200562
vn -0.3917858 2.281331E-06 0.9200564
vn 0.3917865 -2.937952E-06 -0.9200562
vn 0.391786 -1.963575E-06 -0.9200564
vn -0.9200554 -2.950513E-06 -0.3917884
vn -0.9200556 -2.53626E-07 -0.3917879
vn 0.9200555 9.730164E-07 0.3917878
vn 0.9200553 3.34906E-06 0.3917882
vn -6.297721E-07 -1 1.478935E-06
vn -6.29773E-07 -1 1.478934E-06
vn 6.297724E-07 1 -1.478935E-06
vn 6.297727E-07 1 -1.478935E-06
vt 0.5363742 0.5861077
vt 0.5344744 0.586897
vt 0.5223902 0.5578083
vt 0.5363746 0.5861076
vt 0.5223905 0.5578082
vt 0.5242903 0.557019
vt 0.5785788 0.5524521
vt 0.5776975 0.554311
vt 0.5492356 0.5408164
vt 0.5785788 0.5524521
vt 0.5492356 0.5408164
vt 0.550117 0.5389575
vt 0.5563708 0.5749515
vt 0.5548326 0.5763176
vt 0.5339164 0.5527657
vt 0.5563707 0.5749516
vt 0.5339164 0.5527657
vt 0.5354546 0.5513996
vt 0.4269371 0.5592298
vt 0.425827 0.5574977
vt 0.4523466 0.5405009
vt 0.426937 0.5592297
vt 0.4523465 0.5405009
vt 0.4534566 0.5422329
vt 0.4251081 0.5580401
vt 0.4241308 0.5562298
vt 0.4518486 0.5412664
vt 0.425108 0.55804
vt 0.4518486 0.5412664
vt 0.4528258 0.5430767
vt 0.5032747 0.5135713
vt 0.5042809 0.5153657
vt 0.5028852 0.5168771
vt 0.5032747 0.5135713
vt 0.5028852 0.5168771
vt 0.5010165 0.5160168
vt 0.5032747 0.5135713
vt 0.5010165 0.5160168
vt 0.5012572 0.5139737
vt 0.4957191 0.5153657
vt 0.4967253 0.5135713
vt 0.4987428 0.5139737
vt 0.4957191 0.5153657
vt 0.4987428 0.5139737
vt 0.4989835 0.5160168
vt 0.4957191 0.5153657
vt 0.4989835 0.5160168
vt 0.4971148 0.5168771
vt 0.4392385 0.5689911
vt 0.440652 0.5704859
vt 0.440559 0.5705738
vt 0.4392384 0.5689911
vt 0.4405589 0.5705737
vt 0.4391454 0.5690789
vt 0.5472615 0.582415
vt 0.5489326 0.5812151
vt 0.5493351 0.5827899
vt 0.5472618 0.5824149
vt 0.5493353 0.5827898
vt 0.5472934 0.5825388
vt 0.5735943 0.5534002
vt 0.5744951 0.5515506
vt 0.5764785 0.5531547
vt 0.5735943 0.5534002
vt 0.5764785 0.5531547
vt 0.5748581 0.5544223
vt 0.521799 0.5904853
vt 0.523791 0.5899712
vt 0.5245407 0.5914134
vt 0.521799 0.5904853
vt 0.5245407 0.5914134
vt 0.5229756 0.5927486
vt 0.421999 0.5510301
vt 0.4228654 0.5528961
vt 0.4227769 0.5529885
vt 0.4219994 0.5510313
vt 0.4227772 0.5529896
vt 0.4208753 0.5522054
vt 0.4411091 0.4961386
vt 0.4429032 0.4971453
vt 0.4425003 0.4991627
vt 0.4411092 0.4961385
vt 0.4425004 0.4991626
vt 0.4404572 0.4994027
vt 0.4411093 0.4961384
vt 0.4404573 0.4994026
vt 0.4395975 0.4975337
vt 0.4736175 0.5414329
vt 0.4751388 0.5428178
vt 0.4750527 0.5429124
vt 0.4736175 0.5414329
vt 0.4750527 0.5429124
vt 0.4735314 0.5415275
vt 0.5495657 0.5794007
vt 0.5516133 0.5795995
vt 0.5508782 0.5810491
vt 0.5495656 0.5794007
vt 0.5508781 0.5810492
vt 0.5495078 0.5795147
vt 0.5568553 0.5203481
vt 0.5582997 0.5188831
vt 0.5596667 0.5210367
vt 0.5568553 0.5203481
vt 0.5596667 0.5210368
vt 0.5577263 0.5217204
vt 0.4899663 0.5715642
vt 0.4917785 0.5705903
vt 0.4928502 0.5718123
vt 0.4899663 0.5715641
vt 0.4928502 0.5718122
vt 0.4916483 0.5734819
vt 0.4199659 0.5401108
vt 0.4218009 0.541041
vt 0.4217885 0.5411683
vt 0.4199659 0.5401104
vt 0.4217885 0.5411679
vt 0.419809 0.5417282
vt 0.423696 0.5581085
vt 0.4256864 0.557588
vt 0.4267965 0.55932
vt 0.423696 0.5581085
vt 0.4267964 0.55932
vt 0.4254922 0.560911
vt 0.423696 0.5581084
vt 0.4254922 0.5609109
vt 0.423576 0.5601621
vt 0.4955963 0.515479
vt 0.496992 0.5169904
vt 0.4880913 0.5252094
vt 0.4955963 0.515479
vt 0.4880913 0.5252094
vt 0.4866956 0.523698
vt 0.5557384 0.5748218
vt 0.5571969 0.5762727
vt 0.5486529 0.5848618
vt 0.5557383 0.5748218
vt 0.5486528 0.5848618
vt 0.5471942 0.5834109
vt 0.5485982 0.4924163
vt 0.5504614 0.491544
vt 0.555598 0.5025162
vt 0.5485981 0.4924163
vt 0.5555978 0.5025162
vt 0.5537347 0.5033885
vt 0.4711971 0.5593421
vt 0.4724612 0.5577191
vt 0.4820196 0.5651628
vt 0.4711972 0.559342
vt 0.4820197 0.5651627
vt 0.4807557 0.5667858
vt 0.4200734 0.5404594
vt 0.4220297 0.5398227
vt 0.4257791 0.5513428
vt 0.4200734 0.5404593
vt 0.4257791 0.5513427
vt 0.4238228 0.5519794
vt 0.423696 0.5581086
vt 0.4256864 0.557588
vt 0.4267965 0.5593201
vt 0.423696 0.5581085
vt 0.4267965 0.55932
vt 0.4254922 0.560911
vt 0.423696 0.5581082
vt 0.4254921 0.5609107
vt 0.423576 0.5601619
vt 0.5732899 0.5564056
vt 0.5745527 0.557215
vt 0.5730333 0.5595857
vt 0.5732899 0.5564055
vt 0.5730333 0.5595856
vt 0.5717704 0.5587763
vt 0.4267102 0.5564056
vt 0.4282296 0.5587763
vt 0.4269667 0.5595857
vt 0.4267101 0.5564055
vt 0.4269667 0.5595856
vt 0.4254473 0.557215
vt 0.4344513 0.5671558
vt 0.4386798 0.5732481
vt 0.4374476 0.5741035
vt 0.4344514 0.5671559
vt 0.4374477 0.5741036
vt 0.4332191 0.5680112
vt 0.5655487 0.5671559
vt 0.5667809 0.5680112
vt 0.5625523 0.5741036
vt 0.5655488 0.5671557
vt 0.5625525 0.5741034
vt 0.5613202 0.5732481
vt 0.4923148 0.517906
vt 0.4942251 0.5199748
vt 0.4887767 0.5250059
vt 0.4923148 0.517906
vt 0.4887767 0.5250059
vt 0.4868664 0.5229372
vt 0.5076852 0.517906
vt 0.5131336 0.5229372
vt 0.5112234 0.5250059
vt 0.5076852 0.517906
vt 0.5112234 0.5250059
vt 0.5057749 0.5199748
o group1088580684
g mesh1088580684
usemtl mat24
f 28/168/56 27/167/56 26/166/56
f 29/171/57 28/170/57 26/169/57
f 32/174/58 31/173/58 30/172/58
f 33/177/59 32/176/59 30/175/59
f 33/180/60 30/179/60 26/178/60
f 27/183/61 33/182/61 26/181/61
f 32/186/62 28/185/62 29/184/62
f 31/189/63 32/188/63 29/187/63
f 31/192/64 29/191/64 26/190/64
f 30/195/65 31/194/65 26/193/65
f 32/198/66 33/197/66 27/196/66
f 28/201/67 32/200/67 27/199/67
o group535024760
g mesh535024760
usemtl mat20
f 3/3/1 2/2/1 1/1/1
f 4/6/2 3/5/2 1/4/2
f 6/9/3 5/8/3 2/7/3
f 3/12/4 6/11/4 2/10/4
f 8/15/5 7/14/5 5/13/5
f 6/18/6 8/17/6 5/16/6
f 10/21/7 9/20/7 7/19/7
f 8/24/8 10/23/8 7/22/8
f 4/27/9 1/26/9 9/25/9
f 10/30/10 4/29/10 9/28/10
f 7/33/11 9/32/11 1/31/11
f 5/36/12 7/35/12 1/34/12
f 2/39/13 5/38/13 1/37/13
f 3/42/14 4/41/14 10/40/14
f 6/45/15 3/44/15 10/43/15
f 8/48/16 6/47/16 10/46/16
f 11/51/17 7/50/17 9/49/17
f 12/54/18 11/53/18 9/52/18
f 13/57/19 5/56/19 7/55/19
f 11/60/20 13/59/20 7/58/20
f 14/63/21 2/62/21 5/61/21
f 13/66/22 14/65/22 5/64/22
f 15/69/23 1/68/23 2/67/23
f 14/72/24 15/71/24 2/70/24
f 12/75/25 9/74/25 1/73/25
f 15/78/26 12/77/26 1/76/26
f 11/81/27 12/80/27 15/79/27
f 13/84/28 11/83/28 15/82/28
f 14/87/29 13/86/29 15/85/29
f 16/90/30 11/89/30 12/88/30
f 17/93/31 16/92/31 12/91/31
f 18/96/32 13/95/32 11/94/32
f 16/99/33 18/98/33 11/97/33
f 19/102/34 14/101/34 13/100/34
f 18/105/35 19/104/35 13/103/35
f 20/108/36 15/107/36 14/106/36
f 19/111/37 20/110/37 14/109/37
f 17/114/38 12/113/38 15/112/38
f 20/117/39 17/116/39 15/115/39
f 16/120/40 17/119/40 20/118/40
f 18/123/41 16/122/41 20/121/41
f 19/126/42 18/125/42 20/124/42
f 21/129/43 16/128/43 17/127/43
f 22/132/44 21/131/44 17/130/44
f 23/135/45 18/134/45 16/133/45
f 21/138/46 23/137/46 16/136/46
f 24/141/47 19/140/47 18/139/47
f 23/144/48 24/143/48 18/142/48
f 25/147/49 20/146/49 19/145/49
f 24/150/50 25/149/50 19/148/50
f 22/153/51 17/152/51 20/151/51
f 25/156/52 22/155/52 20/154/52
f 21/159/53 22/158/53 25/157/53
f 23/162/54 21/161/54 25/160/54
f 24/165/55 23/164/55 25/163/55
