mtllib materials.mtl
v -0.4666636 -0.04132283 -0.3549137
v 0.3718091 -0.02132297 -0.3549138
v 0.3718091 0.05867708 -0.3549138
v -0.4666636 0.03867722 -0.3549137
v -0.4666636 -0.04132283 -0.2749137
v -0.4666636 0.03867722 -0.2749137
v -0.4666643 0.03867769 0.3550864
v -0.4666642 -0.04132235 0.3550864
v -0.3735183 -0.04132283 -0.2749137
v -0.3757672 0.03867722 -0.2749137
v 0.3718091 -0.02132297 -0.2749138
v 0.3718091 0.05867708 -0.2749138
v -0.3757678 0.03867769 0.3550864
v -0.3735189 -0.04132235 0.3550864
v 0.4646228 -0.01775932 0.3550872
v -0.3735189 -0.04132235 0.3550865
v -0.3757671 0.0386461 0.3550865
v 0.4623746 0.06220913 0.3550872
v 0.4646229 -0.01775944 0.2750871
v 0.4623746 0.06220889 0.2750871
v 0.4623759 0.06220949 -0.3549131
v 0.4646241 -0.01775897 -0.3549131
v 0.3715143 -0.02037704 0.2750871
v -0.3735189 -0.04132247 0.2750865
v -0.3757669 0.03864622 0.2750865
v 0.3715141 0.05965459 0.2750871
v 0.3715155 0.05965519 -0.3549133
v 0.3715156 -0.02037656 -0.3549132
v 0.4000003 -0.03829193 -0.3029899
v 0.397829 -0.04192805 0.3051004
v 0.3960051 0.0380497 0.3055722
v 0.396548 0.03895879 0.1535496
v 0.3970909 0.03986776 0.001526952
v 0.3976336 0.04077673 -0.1504956
v 0.3981765 0.04168582 -0.3025182
v -0.390006 -0.05629039 -0.3059185
v -0.3918298 0.02368736 -0.3054467
v -0.3923727 0.02277839 -0.1534242
v -0.3929155 0.0218693 -0.001401663
v -0.3934584 0.02096033 0.1506209
v -0.3940012 0.02005124 0.3026436
v -0.3921774 -0.05992651 0.3021719
v 0.2006748 0.03718615 -0.3032503
v 0.003173292 0.03268659 -0.3039824
v -0.1943283 0.02818692 -0.3047146
v -0.1964996 0.02455091 0.3033757
v 0.001002014 0.02905047 0.3041078
v 0.1985036 0.03355002 0.30484
v 0.1946121 0.06983948 0.005352259
v 0.1898289 0.06310427 -0.1466733
v -0.00927031 0.06371951 0.1546012
v -0.198861 0.05543017 0.1421873
v -0.200716 0.05033684 -0.009742439
v -0.1884197 0.05327129 -0.1417198
v 0.0075109 0.04909194 -0.1530058
v -0.01845318 0.06053913 -0.008436978
v 0.2015181 0.05738199 0.1518495
vn -1.169879E-07 -4.421677E-07 -1
vn -1 -1.141924E-08 -9.70526E-07
vn -4.406086E-07 -1 1.748456E-07
vn -3.43774E-08 1 -1.748455E-07
vn -1 1.748456E-07 3.760409E-07
vn 1 1.976832E-07 -2.593615E-07
vn 1.092318E-07 3.620127E-07 1
vn -6.407467E-09 1 -7.57292E-07
vn 0.9996051 0.02810012 9.880594E-07
vn -2.553929E-07 -1 7.218129E-07
vn -2.046558E-07 4.189856E-07 1
vn 0.02384592 -0.9997157 9.018038E-09
vn 0.02681093 -0.999153 -0.03121675
vn -0.02384598 0.9997157 1.425829E-08
vn -0.02673103 0.9991812 0.03037173
vn -7.811576E-07 -4.692655E-07 1
vn 0.9996051 0.028102 2.072948E-06
vn 0.02810233 -0.9996051 1.722745E-06
vn -0.02810214 0.9996051 1.268694E-07
vn 0.9996051 0.02810178 1.906783E-07
vn -0.9996051 -0.02810179 -8.189762E-07
vn 8.237476E-07 -1.314056E-07 -1
vn -0.02810135 0.9996051 7.63558E-07
vn -1 -1.428988E-06 -2.029894E-06
vn 0.0281026 -0.9996051 -6.949656E-07
vn 1.558299E-06 -8.044852E-07 -1
vn 0.9997337 0.02277618 0.003706046
vn -0.9997337 -0.02277651 -0.003706048
vn 0.02279823 -0.9997227 -0.005896535
vn -0.02279875 0.9997227 0.005897196
vn 0.003570705 0.005979359 -0.9999757
vn -0.003570676 -0.005979359 0.9999757
vn 0.1465445 0.9891831 0.006437878
vn -0.02279869 0.9997227 0.0058967
vn 0.1069429 0.9942451 0.006326603
vn -0.04150199 0.9985943 -0.03297045
vn 0.02272096 0.9994456 0.02433916
vn -0.0219543 0.9882453 -0.151292
vn -0.02306657 0.9818163 0.1884269
vn -0.02302243 0.9735441 0.2273365
vn -0.04249818 0.9989504 -0.01709286
vn -0.0751211 0.996299 -0.04177556
vn -0.02185489 0.9860946 -0.1647417
vn -0.02279776 0.9997227 0.005896317
vn -0.1481661 0.9889479 0.005384822
vn -0.146285 0.9892278 0.005392388
vn -0.02279842 0.9997227 0.005896776
vn 0.09156823 0.9836565 0.1550325
vn 0.03170593 0.9874917 0.1544504
vn 0.09305211 0.9924416 0.08000641
vn 0.03103351 0.9960465 0.08323652
vn -0.05576416 0.9983104 -0.01633319
vn -0.03791566 0.9956042 -0.085643
vn -0.0550354 0.9945427 -0.08863363
vn -0.05749525 0.9716635 0.229269
vn -0.1756319 0.9839727 -0.03084263
vn -0.1634086 0.9684936 0.1879306
vn -0.1461552 0.9892262 0.008377732
vn -0.07255184 0.9917499 -0.1056806
vn 0.01495634 0.9939907 -0.1084382
vn -0.1381 0.9796343 -0.1457564
vn 0.1453632 0.9881961 -0.04835377
vn 0.1027019 0.9824802 -0.1555155
vt -0.115073 0.08182808
vt -0.07936421 0.1577178
vt -0.08651964 0.1612955
vt -0.1222284 0.0854058
vt -0.0148254 0.160866
vt -0.01947531 0.1673759
vt -0.07074051 0.1307578
vt -0.06609059 0.124248
vt -0.07691965 0.05054234
vt -0.0693857 0.04785164
vt -0.06625289 0.05662353
vt 0.07691963 0.05054239
vt 0.06632851 0.0564118
vt 0.06938569 0.0478517
vt -0.008315231 0.1655159
vt -0.01296514 0.1720258
vt -0.019475 0.1673759
vt -0.01482511 0.160866
vt 0.009477786 0.1671433
vt 0.01598765 0.1624934
vt 0.02063756 0.1690033
vt 0.01412769 0.1736532
vt 0.1181634 0.0935358
vt 0.08651963 0.1612955
vt 0.0793642 0.1577178
vt 0.1109074 0.09015924
vt 0.06938563 0.04785166
vt 0.06632845 0.05641175
vt 0.006998714 0.03522251
vt 0.01005589 0.02666241
vt 0.02356284 0.1660329
vt 0.01873185 0.1596523
vt 0.06895927 0.1216233
vt 0.07379027 0.1280039
vt -0.06625283 0.05662351
vt -0.06938563 0.04785162
vt -0.01005591 0.02666239
vt -0.00692309 0.03543426
vt 0.1150731 0.08182803
vt 0.1222285 0.08540574
vt 0.1181635 0.09353576
vt 0.1109075 0.09015919
vt -0.04053385 0.1298169
vt -0.04807755 0.1324801
vt -0.07599807 0.05339278
vt -0.06849995 0.06217569
vt -0.04281533 0.1321716
vt -0.07922151 0.05619165
vt 0.07593457 0.05357267
vt 0.04801405 0.13266
vt 0.04047035 0.1299969
vt 0.07929011 0.05640026
vt 0.04290884 0.1323921
vt 0.06864807 0.0621768
vt 0.07553218 0.1661786
vt 0.1109075 0.09015916
vt 0.1181606 0.09353437
vt 0.08278532 0.1695538
vt 0.06258148 0.1264522
vt 0.06741058 0.1328303
vt 0.01718334 0.1708596
vt 0.01235423 0.1644815
vt 0.0220877 0.1181731
vt 0.01454233 0.1208315
vt 0.01144703 0.1120463
vt -0.01332085 0.04174924
vt -0.005775486 0.03909077
vt -0.02208754 0.1181731
vt 0.005775705 0.03909083
vt 0.01332107 0.04174932
vt -0.0115216 0.1122585
vt -0.01454217 0.1208316
vt 0.06895941 0.1216232
vt 0.07378851 0.1280013
vt 0.06741041 0.1328304
vt 0.06258132 0.1264523
vt -0.06895943 0.1216232
vt -0.06258135 0.1264522
vt -0.06741046 0.1328303
vt -0.07378854 0.1280012
vt -0.08662023 0.1613128
vt -0.1181606 0.09353441
vt -0.1109075 0.09015917
vt -0.07946198 0.1577337
vt -0.01454209 0.1208315
vt -0.01152152 0.1122584
vt 0.04789822 0.133194
vt 0.04487763 0.1417671
vt -0.06545009 0.1371145
vt -0.06079832 0.130602
vt -0.00953327 0.1672203
vt -0.01418504 0.1737328
vt 0.01144683 0.1120465
vt 0.01454214 0.1208317
vt -0.04487759 0.1417673
vt -0.0479729 0.1329821
vt -0.07553221 0.1661787
vt -0.08278535 0.1695539
vt -0.08662029 0.1613129
vt -0.07946203 0.1577338
vt 0.01532253 0.160587
vt 0.06360371 0.1236161
vt 0.06846745 0.1299678
vt 0.05639716 0.1392106
vt 0.04432686 0.1484533
vt 0.03225657 0.157696
vt 0.02018628 0.1669387
vt -0.01532256 0.160587
vt -0.02018631 0.1669387
vt -0.0322566 0.157696
vt -0.04432689 0.1484532
vt -0.05639718 0.1392105
vt -0.06846748 0.1299678
vt -0.06360372 0.1236161
vt -0.04271652 0.1336169
vt -0.06949359 0.05927031
vt -0.01228078 0.03866423
vt 0.0144963 0.1130108
vt 0.04271656 0.133617
vt 0.02841336 0.1284655
vt 0.04941083 0.1150303
vt -0.07645994 0.1588899
vt -0.08369915 0.1622949
vt -0.09210744 0.1444182
vt -0.1005157 0.1265414
vt -0.108924 0.1086647
vt -0.1173323 0.09078798
vt -0.1100931 0.08738303
vt 0.07645993 0.1588899
vt 0.1100931 0.08738303
vt 0.1173323 0.09078798
vt 0.108924 0.1086647
vt 0.1005157 0.1265414
vt 0.09210743 0.1444182
vt 0.08369915 0.1622949
vt 0.01971282 0.09946977
vt 0.005585362 0.09385417
vt 0.02686713 0.08028848
vt -0.0001930998 0.1181624
vt -0.01449631 0.1130109
vt -0.007802036 0.09442423
vt 0.03249034 0.1107237
vt 0.01831247 0.1052366
vt 0.03962014 0.09107362
vt 0.008470753 0.0805033
vt 0.01567937 0.06290471
vt 0.03015816 0.06753989
vt 0.03909429 0.06259654
vt 0.05103061 0.06836738
vt 0.04522125 0.08711804
vt 0.0291838 0.06295435
vt 0.04524463 0.06674433
vt 0.03988639 0.08575922
vt 0.01750919 0.08606673
vt 0.02546561 0.06798436
vt 0.04057862 0.07438788
vt 0.01316743 0.1065194
vt 0.02135557 0.08854081
vt 0.03573992 0.09398942
vt 0.01013377 0.08145405
vt 0.02586263 0.08585424
vt 0.01765086 0.105585
vt 0.01419742 0.108763
vt 0.03511809 0.09582191
vt 0.02882079 0.1130006
vt 0.01810478 0.09883933
vt 0.03839228 0.08492765
vt 0.03315989 0.1039775
vt 0.05519039 0.05411872
vt 0.06949359 0.05927024
vt 0.06279932 0.07785688
vt 0.0358339 0.06528656
vt 0.05021572 0.07021435
vt 0.04250862 0.08937778
vt 0.02152667 0.06011152
vt 0.03590756 0.06504203
vt 0.0304774 0.08371607
vt 0.00558652 0.05725092
vt 0.01228079 0.03866427
vt 0.026584 0.0438158
vt 0.01122116 0.08722089
vt 0.02521334 0.09385795
vt 0.01675258 0.1115273
vt 0.03093022 0.08215048
vt 0.0226543 0.101549
vt 0.008583878 0.09507953
vt 0.01027358 0.1062884
vt 0.01809272 0.08832593
vt 0.03193315 0.09333448
vt 0.02981623 0.1018539
vt 0.01592364 0.09699184
vt 0.02361127 0.07735272
vt 0.03148096 0.07046469
vt 0.02546751 0.0877011
vt 0.009732037 0.08332464
vt 0.01103969 0.1013603
vt 0.01868756 0.08140422
vt 0.03178797 0.08814459
vt 0.03091135 0.09036706
vt 0.0177869 0.08367361
vt 0.02329092 0.06626783
vt 0.04324294 0.08131888
vt 0.03448466 0.09819984
vt 0.02007872 0.09280856
vt 0.02547667 0.08571269
vt 0.01093185 0.08128908
vt 0.01621708 0.06222758
vt 0.04096548 0.0724758
vt 0.03465873 0.09122411
vt 0.0194468 0.08505926
vt 0.04289946 0.089289
vt 0.03080388 0.08385988
vt 0.03625056 0.06519066
vt 0.02267269 0.1092057
vt 0.02853709 0.09187444
vt 0.04323813 0.09570827
vt 0.04572507 0.08323471
vt 0.03106627 0.07924237
vt 0.03563622 0.06015175
vt 0.04209686 0.08363532
vt 0.02599416 0.08002735
vt 0.03277386 0.06051653
vt 0.01463467 0.09590413
vt 0.02112854 0.0764893
vt 0.03559567 0.08123294
vt 0.01754062 0.1004621
vt 0.02271087 0.08020802
vt 0.03763615 0.08571197
o group645413163
g mesh645413163
usemtl mat17
f 4/4/1 3/3/1 2/2/1 1/1/1
f 8/8/2 7/7/2 6/6/2 5/5/2
f 9/11/3 5/10/3 1/9/3
f 6/14/4 10/13/4 4/12/4
f 5/18/5 6/17/5 4/16/5 1/15/5
f 3/22/6 12/21/6 11/20/6 2/19/6
f 9/26/7 11/25/7 12/24/7 10/23/7
f 7/30/8 13/29/8 10/28/8 6/27/8
f 13/34/9 14/33/9 9/32/9 10/31/9
f 14/38/10 8/37/10 5/36/10 9/35/10
f 14/42/11 13/41/11 7/40/11 8/39/11
f 1/45/12 2/44/12 11/43/12
f 1/48/13 11/47/13 9/46/13
f 12/51/14 3/50/14 4/49/14
f 10/54/15 12/53/15 4/52/15
o group1709940713
g mesh1709940713
usemtl mat17
f 18/58/16 17/57/16 16/56/16 15/55/16
f 22/62/17 21/61/17 20/60/17 19/59/17
f 16/67/18 24/66/18 23/65/18 19/64/18 15/63/18
f 20/72/19 26/71/19 25/70/19 17/69/19 18/68/19
f 19/76/20 20/75/20 18/74/20 15/73/20
f 17/80/21 25/79/21 24/78/21 16/77/21
f 23/84/22 24/83/22 25/82/22 26/81/22
f 21/88/23 27/87/23 26/86/23 20/85/23
f 27/92/24 28/91/24 23/90/24 26/89/24
f 28/96/25 22/95/25 19/94/25 23/93/25
f 28/100/26 27/99/26 21/98/26 22/97/26
o group1483305596
g mesh1483305596
usemtl mat20
f 35/107/27 34/106/27 33/105/27 32/104/27 31/103/27 30/102/27 29/101/27
f 42/114/28 41/113/28 40/112/28 39/111/28 38/110/28 37/109/28 36/108/28
f 30/118/29 42/117/29 36/116/29 29/115/29
f 43/121/30 34/120/30 35/119/30
f 36/128/31 37/127/31 45/126/31 44/125/31 43/124/31 35/123/31 29/122/31
f 31/135/32 48/134/32 47/133/32 46/132/32 41/131/32 42/130/32 30/129/32
f 49/138/33 32/137/33 33/136/33
f 48/141/34 31/140/34 32/139/34
f 50/144/35 33/143/35 34/142/35
f 53/147/36 52/146/36 51/145/36
f 55/150/37 54/149/37 53/148/37
f 44/153/38 45/152/38 54/151/38
f 52/156/39 46/155/39 47/154/39
f 51/159/40 47/158/40 48/157/40
f 49/162/41 56/161/41 51/160/41
f 50/165/42 55/164/42 49/163/42
f 43/168/43 44/167/43 50/166/43
f 45/171/44 37/170/44 38/169/44
f 54/174/45 38/173/45 39/172/45
f 53/177/46 39/176/46 40/175/46
f 40/180/47 41/179/47 46/178/47
f 32/183/48 57/182/48 48/181/48
f 48/186/49 57/185/49 51/184/49
f 49/189/50 57/188/50 32/187/50
f 51/192/51 57/191/51 49/190/51
f 51/195/52 56/194/52 53/193/52
f 55/198/53 56/197/53 49/196/53
f 53/201/54 56/200/54 55/199/54
f 47/204/55 51/203/55 52/202/55
f 40/207/56 52/206/56 53/205/56
f 46/210/57 52/209/57 40/208/57
f 39/213/58 53/212/58 54/211/58
f 44/216/59 55/215/59 50/214/59
f 54/219/60 55/218/60 44/217/60
f 38/222/61 54/221/61 45/220/61
f 50/225/62 49/224/62 33/223/62
f 43/228/63 50/227/63 34/226/63
