mtllib materials.mtl
v -0.2800002 -0.1599999 -0.3600002
v 0.0399999 -0.16 -0.3600002
v 0.03999996 0.04000002 -0.3600001
v 0 0.04000002 -0.3600002
v -0.04000002 0.04000002 -0.3600003
v -0.12 0.04000008 -0.3600002
v -0.2000001 0.04000014 -0.3600002
v -0.2400001 0.04000014 -0.3600002
v -0.28 0.04000014 -0.3600001
v -0.2800001 -0.1599999 0.3600003
v -0.28 0.04000014 0.3600002
v -0.2400001 0.04000014 0.3600003
v -0.2 0.04000014 0.3600003
v -0.12 0.04000008 0.3600002
v -0.03999996 0.04000002 0.3600002
v 5.960464E-08 0.04000002 0.3600001
v 0.04000008 0.04000002 0.36
v 0.03999996 -0.16 0.3600001
v -0.2800004 -0.1099999 -0.27
v 0.0399999 -0.11 -0.27
v -0.2400002 0.09000009 -0.3600002
v -0.2800001 0.09000009 -0.3600002
v -0.2800002 0.04000014 -0.27
v 0.04000002 0.04000002 -0.27
v -0.2800003 -0.07999986 5.960464E-08
v -0.2800003 -0.07999986 0.1800004
v 0.03999996 -0.07999998 0.1800002
v 0.0399999 -0.07999998 -5.960464E-08
v -0.2800004 -0.07999986 -0.1800002
v 0.0399999 -0.07999998 -0.1800003
v -0.2800003 -0.1099999 0.2700003
v 0.03999996 -0.11 0.2700002
v 0.04000002 0.04000002 -5.960464E-08
v 0.04000008 0.04000002 0.1800001
v 0.04000008 0.08999997 0.1800002
v 0.04000002 0.08999997 -5.960464E-08
v 0.04000008 0.04000002 0.2700001
v 0.04000008 0.08999997 0.2700003
v 0.04000008 0.08999997 0.1800002
v 0.04000008 0.08999997 0.3600003
v 0.04000008 0.08999997 0.2700003
v 0.04000002 0.04000002 -0.1800001
v 0.04000002 0.08999997 -5.960464E-08
v 0.04000002 0.08999997 -0.1800002
v 0.04000002 0.08999997 -0.1800002
v 0.04000002 0.08999997 -0.27
v -0.28 0.04000014 5.960464E-08
v -0.28 0.04000014 0.1800002
v -0.2800001 0.04000014 -0.1800001
v -0.2800001 0.04000014 0.2700002
v -0.2000001 0.04000014 0.2700003
v -0.12 0.04000008 0.2700002
v -0.2000001 0.04000014 0.1800002
v -0.12 0.04000008 0.1800001
v -0.2000001 0.04000014 5.960464E-08
v -0.12 0.04000008 0
v -0.2000001 0.04000014 -0.1800002
v -0.12 0.04000008 -0.1800001
v -0.2000002 0.04000014 -0.27
v -0.1200001 0.04000008 -0.2700002
v -0.04000008 0.04000008 -0.2700003
v 0 0.04000002 -0.2700003
v 0.03999996 0.09000009 -0.3600003
v 0 0.09000009 -0.3600002
v -0.03999996 0.04000002 -0.1800002
v 0 0.04000002 -0.1800002
v -0.03999996 0.04000002 -5.960464E-08
v 0 0.04000002 -5.960464E-08
v -0.03999996 0.04000002 0.1800002
v 5.960464E-08 0.04000002 0.1800001
v -0.03999996 0.04000002 0.2700002
v 5.960464E-08 0.04000002 0.2700002
v -0.2400002 0.04000014 0.2700003
v -0.28 0.09000009 0.3600002
v -0.2400001 0.09000009 0.3600003
v -0.2400001 0.04000014 0.1800003
v -0.2800002 0.09000021 0.2700002
v -0.2400002 0.09000021 0.2700003
v -0.2400001 0.04000014 5.960464E-08
v -0.2800001 0.09000009 0.1800002
v -0.2400002 0.09000009 0.1800004
v -0.2400002 0.04000014 -0.1800002
v -0.2800001 0.09000009 5.960464E-08
v -0.2400002 0.09000009 5.960464E-08
v -0.2400002 0.04000014 -0.27
v -0.2800002 0.09000009 -0.1800001
v -0.2400002 0.09000009 -0.1800002
v -0.2800002 0.09000009 0.2700002
v -0.2400002 0.09000009 0.2700003
v -0.2800001 0.09000021 0.1800002
v -0.2400002 0.09000021 0.1800003
v -0.2800001 0.09000009 5.960464E-08
v -0.2400002 0.09000009 5.960464E-08
v -0.2800002 0.09000009 -0.1800001
v -0.2400002 0.09000009 -0.1800002
v -0.2800002 0.09000009 -0.27
v -0.2400003 0.09000009 -0.27
v -0.2400003 0.09000009 -0.27
v -0.2800002 0.09000009 -0.27
v 5.960464E-08 0.08999997 0.3600003
v 5.960464E-08 0.08999997 0.2700004
v 5.960464E-08 0.08999997 0.2700004
v 5.960464E-08 0.08999997 0.1800002
v 5.960464E-08 0.08999997 0.1800001
v 0 0.08999997 -5.960464E-08
v 0 0.08999997 -5.960464E-08
v 0 0.08999997 -0.1800002
v 0 0.08999997 -0.1800002
v 0 0.08999997 -0.2700003
v 0.04000002 0.09000009 -0.27
v 0 0.09000009 -0.2700003
vn 6.705514E-08 -1.375796E-07 -1
vn 3.98606E-07 -7.515768E-08 1
vn -3.447943E-07 -0.8741573 0.4856429
vn -3.844508E-06 -1.105656E-06 -1
vn -1 1.19664E-06 -1.89978E-06
vn 1 -5.047997E-07 -2.322689E-07
vn -3.507876E-07 -1 4.217605E-14
vn -3.686119E-07 -1 2.502621E-14
vn -3.087105E-07 -0.948683 0.3162286
vn -4.700038E-07 -0.9486832 -0.3162282
vn -5.0581E-07 -0.874157 -0.4856435
vn 1 1.141937E-08 -3.41485E-07
vn 1 -9.975138E-07 -3.34586E-07
vn 1 4.867159E-08 2.607654E-08
vn 1 -8.923087E-07 -1.541013E-07
vn 1 -5.793055E-07 3.66618E-08
vn 1 -3.611115E-07 2.123415E-07
vn 1 -9.819918E-07 5.173937E-09
vn 1 -8.785115E-07 1.288371E-07
vn 1 -2.58337E-08 1.552191E-08
vn 1 -2.583375E-08 1.572869E-08
vn -1 2.534196E-06 8.444E-08
vn -1 2.534196E-06 3.327925E-07
vn -1 1.940909E-06 -1.9721E-07
vn -1 1.83053E-06 2.045691E-07
vn -1 9.411917E-07 1.861938E-06
vn 7.823273E-07 1 -4.174347E-13
vn 7.629229E-07 1 -1.99901E-14
vn 7.555238E-07 1 4.353463E-14
vn 7.845499E-07 1 -2.064079E-14
vn 7.784464E-07 1 -6.174288E-13
vn 3.589889E-07 1 -3.311366E-07
vn 7.604403E-07 1 -3.311366E-07
vn 2.861025E-06 -2.407013E-06 -1
vn 3.386547E-07 1 3.311368E-07
vn 7.171855E-07 1 3.311365E-07
vn 7.386571E-07 1 -3.605125E-15
vn 5.84358E-10 1 -2.129842E-15
vn 7.134594E-07 1 7.108528E-15
vn -7.176717E-09 1 2.917229E-14
vn 7.254117E-07 1 -9.86723E-17
vn -9.763334E-09 1 -2.520348E-15
vn 7.267064E-07 1 -1.814352E-13
vn -7.175821E-09 1 5.635112E-16
vn -3.045835E-08 1 1.940914E-13
vn -2.4885E-06 -9.007761E-07 1
vn -4.598197E-08 1 -3.535426E-14
vn -2.115971E-06 -4.753456E-07 1
vn 7.82641E-09 1 -1.092925E-14
vn -3.233561E-06 -1.158193E-06 1
vn 1.662152E-08 1 3.42815E-14
vn 2.176036E-14 -4.186227E-14 1
vn 1.352199E-08 1 1.734289E-13
vn 2.726918E-06 1.151117E-07 1
vn 7.703226E-07 1 5.978451E-13
vn -1.824407E-08 1 -2.236977E-13
vn -1 -1.315273E-06 1.206996E-06
vn 2.11597E-06 3.821985E-07 -1
vn 1 1.16626E-06 -1.39243E-06
vn -9.047795E-08 1 2.629262E-13
vn -1 -1.315268E-06 -7.467139E-07
vn 3.23356E-06 -5.25395E-08 -1
vn 1 1.017245E-06 7.351201E-07
vn -1.318721E-07 1 -1.484739E-13
vn -1 -1.315272E-06 8.36124E-08
vn -5.72875E-14 4.630324E-14 -1
vn 1 1.16626E-06 -1.076121E-08
vn -3.142695E-09 1 1.350796E-14
vn -1 -1.315272E-06 3.733572E-07
vn -2.726918E-06 -1.344449E-06 -1
vn 1 1.315272E-06 -3.625938E-07
vn -1.05381E-07 1 6.424517E-14
vn -1 -1.315272E-06 5.447216E-07
vn -1.192093E-07 -2.830368E-08 -1
vn 1 1.315272E-06 -6.887632E-07
vn 2.3351E-08 1 1.259982E-13
vn 1 1.166261E-06 1.339449E-06
vn 1.192092E-07 -1.952063E-07 1
vn -1 -1.315274E-06 -1.400709E-06
vn -1.289722E-07 1 -2.56758E-13
vn 2.354382E-06 -4.379992E-06 1
vn -1 -1.421085E-14 -2.087219E-14
vn -3.09944E-06 3.529524E-06 -1
vn 3.659578E-08 1 -3.317801E-15
vn 3.09944E-06 -3.42451E-06 1
vn -1 1.421086E-14 7.549517E-15
vn -1.981854E-06 2.806136E-06 -1
vn -8.758116E-08 1 8.09292E-15
vn 1.236796E-06 -1.180814E-06 1
vn -1 4.263256E-14 3.311366E-07
vn 6.661338E-15 -1.17421E-14 -1
vn 1.011671E-07 1 4.77645E-14
vn 7.54952E-15 3.247395E-14 1
vn -1 2.842171E-14 -6.661338E-15
vn 2.115964E-06 -1.886731E-06 -1
vn -6.688464E-08 1 6.581447E-15
vn -2.861021E-06 1.351057E-06 1
vn -1 1.421086E-14 -2.087219E-14
vn 4.351136E-06 -1.041769E-06 -1
vn 1.400771E-07 1 -1.673318E-14
vn 1 -6.308849E-08 -6.672398E-07
vn -4.351136E-06 8.994974E-07 1
vn -1 -1.421085E-14 -6.661338E-15
vn 3.659373E-08 1 5.663349E-14
vt -0.03935483 0.09123157
vt -0.02504398 0.1198532
vt -0.04293252 0.1287975
vt -0.04472137 0.1252198
vt -0.04651023 0.1216421
vt -0.05008794 0.1144867
vt -0.05366566 0.1073313
vt -0.05545451 0.1037536
vt -0.05724337 0.1001759
vt 0.0393548 0.09123159
vt 0.05724335 0.1001759
vt 0.0554545 0.1037536
vt 0.05366565 0.1073313
vt 0.05008793 0.1144867
vt 0.04651021 0.1216421
vt 0.04472136 0.1252198
vt 0.0429325 0.1287975
vt 0.02504396 0.1198533
vt -0.05642097 0.06806814
vt -0.04615002 0.06735555
vt -0.04393526 0.09927884
vt -0.05420621 0.09999142
vt -0.0572433 0.1001763
vt -0.05545444 0.103754
vt -0.05992658 0.10599
vt -0.06171543 0.1024123
vt 0.04696393 0.1269426
vt 0.03533913 0.1432173
vt 0.02801553 0.1379861
vt 0.03673413 0.1257801
vt -0.04696411 0.1269424
vt -0.03673431 0.1257799
vt -0.02801574 0.137986
vt -0.03533935 0.1432171
vt -0.05004685 0.085833
vt -0.03309547 0.07977893
vt -0.02233271 0.1099147
vt -0.03928409 0.1159688
vt -0.06699824 0.09188706
vt -0.05004685 0.085833
vt -0.03928409 0.1159688
vt -0.05623547 0.1220228
vt -0.0595702 0.07580084
vt -0.05023459 0.07411388
vt -0.04454431 0.1056039
vt -0.05387993 0.1072909
vt -0.04458214 0.09362064
vt -0.03608645 0.08939888
vt -0.02184605 0.1180557
vt -0.03034174 0.1222775
vt -0.04078824 0.09583502
vt -0.0317862 0.09083872
vt -0.01625706 0.1188181
vt -0.0252591 0.1238144
vt -0.006044903 0.1222925
vt 0.008602316 0.1118302
vt 0.01150851 0.1158989
vt -0.003138716 0.1263612
vt -0.01301981 0.1125278
vt 0.001627435 0.1020655
vt 0.008602265 0.1118303
vt -0.006044962 0.1222926
vt 0.008602342 0.1118302
vt 0.01592595 0.1065991
vt 0.01883215 0.1106677
vt 0.01150854 0.1158989
vt 0.001627454 0.1020655
vt 0.007207344 0.09439313
vt 0.0159259 0.1065992
vt 0.008602289 0.1118303
vt 0.007207362 0.09439312
vt 0.01162477 0.08509332
vt 0.02324952 0.101368
vt 0.01592592 0.1065991
vt 0.01592595 0.1065991
vt 0.02324954 0.101368
vt 0.02615575 0.1054366
vt 0.01883215 0.1106678
vt -0.02766701 0.1229901
vt -0.01301978 0.1125278
vt -0.006044933 0.1222926
vt -0.02069215 0.1327549
vt -0.03673429 0.12578
vt -0.02766699 0.1229901
vt -0.02069212 0.1327549
vt -0.02801572 0.137986
vt -0.02069208 0.1327548
vt -0.006044877 0.1222925
vt -0.003138689 0.1263612
vt -0.01778591 0.1368235
vt -0.02801568 0.137986
vt -0.02069208 0.1327548
vt -0.0177859 0.1368235
vt -0.02510949 0.1420546
vt 0.006045059 0.1222926
vt -0.008602179 0.1118304
vt -0.001627359 0.1020655
vt 0.01301989 0.1125278
vt 0.02069234 0.1327549
vt 0.006045093 0.1222926
vt 0.01301992 0.1125278
vt 0.02766718 0.1229901
vt 0.02801582 0.137986
vt 0.02069221 0.1327549
vt 0.02766707 0.1229901
vt 0.03673437 0.12578
vt -0.008602216 0.1118303
vt -0.01592583 0.1065992
vt -0.007207288 0.09439317
vt -0.001627391 0.1020655
vt -0.01592573 0.1065991
vt -0.02324935 0.101368
vt -0.01162464 0.08509328
vt -0.00720721 0.09439307
vt 0.01076275 0.08879274
vt 0.01345344 0.0812588
vt 0.02192911 0.08428582
vt 0.01923842 0.09181977
vt 0.01923842 0.09181977
vt 0.02192912 0.08428582
vt 0.03040479 0.08731285
vt 0.02771411 0.0948468
vt 0.02771411 0.0948468
vt 0.03040479 0.08731285
vt 0.04735617 0.09336691
vt 0.04466547 0.1009009
vt 0.04466547 0.1009009
vt 0.04735617 0.09336691
vt 0.06430754 0.09942098
vt 0.06161684 0.1069549
vt 0.06161684 0.1069549
vt 0.06430754 0.09942098
vt 0.07278321 0.102448
vt 0.07009252 0.1099819
vt 0.07856818 0.113009
vt 0.0758775 0.1205429
vt 0.06740182 0.1175159
vt 0.0700925 0.109982
vt 0.0758775 0.1205429
vt 0.07453215 0.1243099
vt 0.06605648 0.1212828
vt 0.06740183 0.1175159
vt -0.0447216 0.1252197
vt -0.04293275 0.1287974
vt -0.04740489 0.1310335
vt -0.04919374 0.1274558
vt 0.05892616 0.1144889
vt 0.06161685 0.106955
vt 0.07009253 0.109982
vt 0.06740184 0.1175159
vt 0.05758082 0.1182559
vt 0.05892617 0.1144889
vt 0.06740186 0.1175159
vt 0.0660565 0.1212829
vt 0.04197479 0.1084348
vt 0.04466547 0.1009009
vt 0.06161684 0.1069549
vt 0.05892615 0.1144889
vt 0.04062944 0.1122018
vt 0.04197478 0.1084349
vt 0.05892615 0.1144889
vt 0.05758081 0.1182559
vt 0.02502341 0.1023807
vt 0.02771411 0.0948468
vt 0.04466547 0.1009009
vt 0.04197479 0.1084348
vt 0.02367806 0.1061478
vt 0.0250234 0.1023808
vt 0.04197478 0.1084349
vt 0.04062944 0.1122018
vt 0.01654773 0.09935372
vt 0.01923842 0.09181977
vt 0.02771411 0.0948468
vt 0.02502341 0.1023807
vt 0.01520237 0.1031207
vt 0.01654772 0.09935378
vt 0.0250234 0.1023808
vt 0.02367806 0.1061478
vt 0.00807206 0.09632669
vt 0.01076275 0.08879275
vt 0.01923842 0.09181977
vt 0.01654773 0.09935372
vt 0.006726705 0.1000937
vt 0.008072048 0.09632675
vt 0.01654772 0.09935378
vt 0.01520238 0.1031207
vt 0.01345342 0.08125887
vt 0.01479877 0.0774919
vt 0.02327445 0.08051892
vt 0.0219291 0.08428589
vt 0.0554545 0.1037535
vt 0.05724335 0.1001758
vt 0.06171548 0.1024118
vt 0.05992664 0.1059895
vt 0.0219291 0.08428589
vt 0.02327445 0.08051892
vt 0.03175012 0.08354595
vt 0.03040478 0.08731292
vt 0.05545451 0.1037535
vt 0.05724337 0.1001758
vt 0.06171551 0.1024118
vt 0.05992666 0.1059895
vt 0.03040478 0.08731292
vt 0.03175012 0.08354595
vt 0.0487015 0.08960001
vt 0.04735615 0.09336698
vt 0.05545451 0.1037534
vt 0.05724336 0.1001757
vt 0.06171549 0.1024117
vt 0.05992665 0.1059894
vt 0.04735615 0.09336698
vt 0.0487015 0.08960001
vt 0.06565288 0.09565406
vt 0.06430753 0.09942104
vt 0.0554545 0.1037536
vt 0.05724335 0.1001759
vt 0.06171549 0.1024119
vt 0.05992664 0.1059896
vt 0.06430753 0.09942104
vt 0.06565288 0.09565406
vt 0.07412855 0.09868108
vt 0.0727832 0.1024481
vt 0.05545443 0.1037538
vt 0.05724328 0.1001761
vt 0.06171542 0.1024121
vt 0.05992657 0.1059898
vt 0.08125889 0.105475
vt 0.0785682 0.113009
vt 0.07009252 0.1099819
vt 0.07278321 0.102448
vt 0.08260424 0.1017081
vt 0.08125889 0.1054751
vt 0.0727832 0.1024481
vt 0.07412855 0.09868108
vt -0.02324954 0.1013678
vt -0.01592594 0.106599
vt -0.01883213 0.1106676
vt -0.02615573 0.1054365
vt -0.05724337 0.1001758
vt -0.05545451 0.1037535
vt -0.05992665 0.1059895
vt -0.0617155 0.1024118
vt 0.01592592 0.106599
vt 0.02324952 0.1013678
vt 0.0261557 0.1054365
vt 0.0188321 0.1106676
vt 0.01479877 0.07749189
vt 0.01614412 0.07372494
vt 0.0246198 0.07675195
vt 0.02327444 0.08051892
vt -0.01592612 0.106599
vt -0.008602523 0.1118302
vt -0.01150873 0.1158988
vt -0.01883232 0.1106677
vt -0.05724339 0.1001757
vt -0.05545453 0.1037534
vt -0.05992668 0.1059895
vt -0.06171553 0.1024118
vt 0.008602501 0.1118302
vt 0.01592609 0.106599
vt 0.0188323 0.1106677
vt 0.0115087 0.1158988
vt 0.02327444 0.08051892
vt 0.0246198 0.07675196
vt 0.03309548 0.079779
vt 0.03175012 0.08354595
vt -0.00860244 0.1118302
vt 0.006044759 0.1222925
vt 0.003138567 0.1263611
vt -0.01150864 0.1158988
vt -0.05724335 0.1001759
vt -0.0554545 0.1037536
vt -0.05992664 0.1059896
vt -0.06171549 0.1024119
vt -0.006044765 0.1222925
vt 0.008602446 0.1118301
vt 0.01150864 0.1158988
vt -0.003138572 0.1263611
vt 0.03175012 0.08354594
vt 0.03309547 0.07977898
vt 0.05004684 0.08583304
vt 0.0487015 0.0896
vt 0.006044791 0.1222924
vt 0.02069199 0.1327548
vt 0.01778581 0.1368234
vt 0.0031386 0.1263611
vt -0.05724335 0.1001761
vt -0.0554545 0.1037538
vt -0.05992664 0.1059899
vt -0.06171549 0.1024122
vt -0.020692 0.1327548
vt -0.006044788 0.1222924
vt -0.003138596 0.1263611
vt -0.01778581 0.1368234
vt 0.0487015 0.08960001
vt 0.05004684 0.08583306
vt 0.06699822 0.09188711
vt 0.06565288 0.09565408
vt 0.02069202 0.1327547
vt 0.02801562 0.1379859
vt 0.02510943 0.1420546
vt 0.01778584 0.1368234
vt -0.05724336 0.1001759
vt -0.05545451 0.1037536
vt -0.05992665 0.1059896
vt -0.06171549 0.1024119
vt -0.02801563 0.1379859
vt -0.02069205 0.1327547
vt -0.01778586 0.1368234
vt -0.02510944 0.1420545
vt 0.06565288 0.09565406
vt 0.06699821 0.0918871
vt 0.07547389 0.09491412
vt 0.07412855 0.09868108
vt -0.03533899 0.1432172
vt -0.02801539 0.137986
vt -0.02510919 0.1420547
vt -0.03243279 0.1472858
vt 0.05545449 0.1037535
vt 0.05724334 0.1001758
vt 0.06171548 0.1024119
vt 0.05992663 0.1059896
vt 0.02801536 0.137986
vt 0.03533895 0.1432172
vt 0.03243275 0.1472859
vt 0.02510916 0.1420547
vt 0.08394958 0.09794118
vt 0.08260424 0.1017081
vt 0.07412855 0.09868109
vt 0.07547389 0.09491413
vt 0.04293251 0.1287975
vt 0.04472136 0.1252197
vt 0.04919349 0.1274558
vt 0.04740464 0.1310335
vt -0.02324955 0.1013679
vt -0.01592596 0.1065991
vt -0.01883216 0.1106677
vt -0.02615575 0.1054366
vt -0.04472132 0.1252198
vt -0.04293247 0.1287975
vt -0.0474046 0.1310336
vt -0.04919345 0.1274559
vt 0.01385702 0.1068877
vt 0.005381349 0.1038607
vt 0.00672669 0.1000937
vt 0.01520236 0.1031207
vt 0.04293247 0.1287975
vt 0.04472132 0.1252198
vt 0.04919345 0.1274559
vt 0.04740461 0.1310336
vt -0.01592596 0.1065991
vt -0.008602348 0.1118302
vt -0.01150855 0.1158989
vt -0.01883216 0.1106677
vt -0.0447213 0.1252198
vt -0.04293244 0.1287975
vt -0.04740458 0.1310336
vt -0.04919343 0.1274559
vt 0.0223327 0.1099148
vt 0.01385702 0.1068877
vt 0.01520235 0.1031207
vt 0.02367805 0.1061478
vt 0.04293247 0.1287975
vt 0.04472133 0.1252198
vt 0.04919346 0.1274559
vt 0.04740461 0.1310336
vt -0.008602323 0.1118302
vt 0.006044899 0.1222925
vt 0.003138713 0.1263612
vt -0.01150851 0.1158989
vt -0.04472136 0.1252198
vt -0.04293251 0.1287975
vt -0.04740464 0.1310336
vt -0.04919349 0.1274559
vt 0.03928409 0.1159688
vt 0.02233271 0.1099147
vt 0.02367806 0.1061478
vt 0.04062944 0.1122018
vt 0.04293251 0.1287975
vt 0.04472136 0.1252198
vt 0.04919349 0.1274559
vt 0.04740464 0.1310336
vt 0.006044871 0.1222925
vt 0.02069209 0.1327548
vt 0.0177859 0.1368235
vt 0.003138682 0.1263612
vt -0.04472151 0.1252197
vt -0.04293264 0.1287975
vt -0.04740477 0.1310335
vt -0.04919363 0.1274558
vt 0.05623545 0.1220229
vt 0.03928409 0.1159688
vt 0.04062943 0.1122018
vt 0.05758081 0.1182559
vt 0.04293263 0.1287974
vt 0.04472149 0.1252197
vt 0.04919362 0.1274557
vt 0.04740476 0.1310335
vt 0.02069209 0.1327548
vt 0.02801569 0.137986
vt 0.02510951 0.1420546
vt 0.0177859 0.1368235
vt -0.04472154 0.1252195
vt -0.04293269 0.1287972
vt -0.04740482 0.1310333
vt -0.04919367 0.1274556
vt 0.06471112 0.1250499
vt 0.05623545 0.1220229
vt 0.05758081 0.1182559
vt 0.06605648 0.1212829
vt -0.03533936 0.143217
vt -0.02801575 0.1379859
vt -0.02510956 0.1420546
vt -0.03243319 0.1472857
vt 0.04293268 0.1287972
vt 0.04472154 0.1252195
vt 0.04919368 0.1274556
vt 0.04740482 0.1310333
vt 0.02801569 0.137986
vt 0.03533929 0.1432171
vt 0.03243309 0.1472858
vt 0.0251095 0.1420546
vt 0.07453216 0.1243099
vt 0.07318683 0.1280769
vt 0.06471112 0.1250499
vt 0.06605649 0.1212829
o group1872775531
g mesh1872775531
usemtl mat16
f 9/9/1 8/8/1 7/7/1 6/6/1 5/5/1 4/4/1 3/3/1 2/2/1 1/1/1
f 18/18/2 17/17/2 16/16/2 15/15/2 14/14/2 13/13/2 12/12/2 11/11/2 10/10/2
f 2/22/3 20/21/3 19/20/3 1/19/3
f 22/26/4 21/25/4 8/24/4 9/23/4
f 19/30/5 23/29/5 9/28/5 1/27/5
f 3/34/6 24/33/6 20/32/6 2/31/6
f 28/38/7 27/37/7 26/36/7 25/35/7
f 30/42/8 28/41/8 25/40/8 29/39/8
f 20/46/9 30/45/9 29/44/9 19/43/9
f 27/50/10 32/49/10 31/48/10 26/47/10
f 32/54/11 18/53/11 10/52/11 31/51/11
f 33/62/13 34/61/13 27/60/13 28/59/13
f 34/70/15 37/69/15 32/68/15 27/67/15
f 37/74/16 17/73/16 18/72/16 32/71/16
f 42/82/18 33/81/18 28/80/18 30/79/18
f 24/86/19 42/85/19 30/84/19 20/83/19
f 25/98/22 26/97/22 48/96/22 47/95/22
f 29/102/23 25/101/23 47/100/23 49/99/23
f 19/106/24 29/105/24 49/104/24 23/103/24
f 26/110/25 31/109/25 50/108/25 48/107/25
f 31/114/26 10/113/26 11/112/26 50/111/26
f 61/142/33 62/141/33 4/140/33 5/139/33
f 64/146/34 63/145/34 3/144/34 4/143/34
f 62/154/36 61/153/36 65/152/36 66/151/36
f 66/162/38 65/161/38 67/160/38 68/159/38
f 68/170/40 67/169/40 69/168/40 70/167/40
f 70/178/42 69/177/42 71/176/42 72/175/42
f 72/186/44 71/185/44 15/184/44 16/183/44
f 51/190/45 73/189/45 12/188/45 13/187/45
f 75/194/46 74/193/46 11/192/46 12/191/46
f 53/198/47 76/197/47 73/196/47 51/195/47
f 78/202/48 77/201/48 50/200/48 73/199/48
f 55/206/49 79/205/49 76/204/49 53/203/49
f 81/210/50 80/209/50 48/208/50 76/207/50
f 57/214/51 82/213/51 79/212/51 55/211/51
f 84/218/52 83/217/52 47/216/52 79/215/52
f 59/222/53 85/221/53 82/220/53 57/219/53
f 87/226/54 86/225/54 49/224/54 82/223/54
f 85/234/56 59/233/56 7/232/56 8/231/56
f 88/242/58 89/241/58 73/240/58 50/239/58
f 90/258/62 91/257/62 76/256/62 48/255/62
f 92/274/66 93/273/66 79/272/66 47/271/66
f 94/290/70 95/289/70 82/288/70 49/287/70
f 96/306/74 97/305/74 85/304/74 23/303/74
f 40/334/81 100/333/81 16/332/81 17/331/81
f 101/342/83 41/341/83 37/340/83 72/339/83
f 38/350/85 102/349/85 72/348/85 37/347/85
f 35/366/89 104/365/89 70/364/89 34/363/89
f 105/374/91 36/373/91 33/372/91 68/371/91
f 43/382/93 106/381/93 68/380/93 33/379/93
f 107/390/95 44/389/95 42/388/95 66/387/95
usemtl mat21
f 36/58/12 35/57/12 34/56/12 33/55/12
f 39/66/14 38/65/14 37/64/14 34/63/14
f 41/78/17 40/77/17 17/76/17 37/75/17
f 44/90/20 43/89/20 33/88/20 42/87/20
f 46/94/21 45/93/21 42/92/21 24/91/21
f 52/118/27 51/117/27 13/116/27 14/115/27
f 54/122/28 53/121/28 51/120/28 52/119/28
f 56/126/29 55/125/29 53/124/29 54/123/29
f 58/130/30 57/129/30 55/128/30 56/127/30
f 60/134/31 59/133/31 57/132/31 58/131/31
f 60/138/32 61/137/32 5/136/32 6/135/32
f 61/150/35 60/149/35 58/148/35 65/147/35
f 65/158/37 58/157/37 56/156/37 67/155/37
f 67/166/39 56/165/39 54/164/39 69/163/39
f 69/174/41 54/173/41 52/172/41 71/171/41
f 71/182/43 52/181/43 14/180/43 15/179/43
f 59/230/55 60/229/55 6/228/55 7/227/55
f 74/238/57 88/237/57 50/236/57 11/235/57
f 89/246/59 75/245/59 12/244/59 73/243/59
f 89/250/60 88/249/60 74/248/60 75/247/60
f 77/254/61 90/253/61 48/252/61 50/251/61
f 91/262/63 78/261/63 73/260/63 76/259/63
f 91/266/64 90/265/64 77/264/64 78/263/64
f 80/270/65 92/269/65 47/268/65 48/267/65
f 93/278/67 81/277/67 76/276/67 79/275/67
f 93/282/68 92/281/68 80/280/68 81/279/68
f 83/286/69 94/285/69 49/284/69 47/283/69
f 95/294/71 84/293/71 79/292/71 82/291/71
f 95/298/72 94/297/72 83/296/72 84/295/72
f 86/302/73 96/301/73 23/300/73 49/299/73
f 97/310/75 87/309/75 82/308/75 85/307/75
f 97/314/76 96/313/76 86/312/76 87/311/76
f 21/318/77 98/317/77 85/316/77 8/315/77
f 98/322/78 99/321/78 23/320/78 85/319/78
f 99/326/79 22/325/79 9/324/79 23/323/79
f 99/330/80 98/329/80 21/328/80 22/327/80
f 100/338/82 101/337/82 72/336/82 16/335/82
f 101/346/84 100/345/84 40/344/84 41/343/84
f 102/354/86 103/353/86 70/352/86 72/351/86
f 103/358/87 39/357/87 34/356/87 70/355/87
f 103/362/88 102/361/88 38/360/88 39/359/88
f 104/370/90 105/369/90 68/368/90 70/367/90
f 105/378/92 104/377/92 35/376/92 36/375/92
f 106/386/94 107/385/94 66/384/94 68/383/94
f 107/394/96 106/393/96 43/392/96 44/391/96
f 45/398/97 108/397/97 66/396/97 42/395/97
f 108/402/98 109/401/98 62/400/98 66/399/98
f 109/406/99 46/405/99 24/404/99 62/403/99
f 109/410/100 108/409/100 45/408/100 46/407/100
f 63/414/101 110/413/101 24/412/101 3/411/101
f 110/418/102 111/417/102 62/416/102 24/415/102
f 111/422/103 64/421/103 4/420/103 62/419/103
f 111/426/104 110/425/104 63/424/104 64/423/104
