mtllib materials.mtl
v 0.2740402 -0.2740402 0.2740402
v -0.2740403 -0.2740402 0.2740401
v -0.2740403 0.2740401 0.2740403
v 0.2740402 0.2740401 0.2740403
v 0.2740403 -0.2740401 -0.2740403
v 0.2740403 0.2740402 -0.2740401
v -0.2740402 0.2740402 -0.2740402
v -0.2740402 -0.2740401 -0.2740403
v 0.2740403 -0.2740402 0.2055302
v -0.2740404 -0.2740402 0.2055302
v -0.2740404 0.2740401 0.2397853
v 0.2740403 0.2740401 0.2397854
v 0.2740403 0.7040401 0.2055319
v -0.2740405 0.7040401 0.2055319
v -0.2740406 0.9140401 1.41561E-07
v -0.2740406 0.9140403 -0.1370195
v 0.2740404 0.9140403 -0.1370195
v 0.2740402 0.9140403 2.011657E-07
v -0.2740403 -0.2740402 -8.940697E-08
v -0.2740403 -0.2740402 -0.1370202
v 0.2740403 -0.2740402 -2.980232E-08
v 0.2740403 -0.2740401 -0.1370202
v -0.2740408 0.9140401 0.1370196
v 0.2740402 0.9140403 0.1370197
v 0.2740403 -0.2740402 0.1370201
v -0.2740404 -0.2740402 0.1370201
v 0.2740405 0.7040403 -0.1712759
v -0.2740403 -0.2740401 -0.2055303
v 0.2740403 -0.2740401 -0.2055303
v 0.2740404 0.7040403 -0.2055301
v -0.2740404 0.7040403 -0.2055302
v -0.2740403 0.2740402 -0.2397853
v 0.2740404 0.2740402 -0.2397852
v -0.2740406 0.7040401 0.1712769
v 0.2740403 0.7040403 0.1712769
v -0.2696753 0.7001488 -0.1706595
vn -1.631275E-07 -2.175033E-07 1
vn -1.087516E-07 -1.631275E-07 1
vn 1.631275E-07 2.175033E-07 -1
vn 1.087516E-07 1.631275E-07 -1
vn 0 -1 0
vn 0 -1 0
vn 0 1 0
vn 0 1 0
vn 1 -2.906587E-13 1.740028E-06
vn 1 -2.175046E-07 3.480061E-06
vn 1 3.047107E-08 -4.875354E-07
vn -1 -3.784619E-13 1.740028E-06
vn -1 -1.523555E-07 2.437677E-06
vn -1 -2.175047E-07 3.480061E-06
vn -1.937726E-13 1 1.740032E-06
vn -4.350063E-07 1 -7.750909E-13
vn -1 -2.759289E-07 2.175032E-07
vn -1 -3.010132E-07 -5.363431E-13
vn 2.175033E-07 -1 -8.700127E-07
vn 0 -1 0
vn 1 -5.016991E-08 1.740032E-06
vn 1 1.003376E-07 4.350065E-07
vn -4.350062E-07 1 -6.623099E-13
vn -4.350061E-07 1 0
vn 1 1.003378E-07 -2.175043E-07
vn 1 1.003376E-07 -2.175032E-07
vn 0 -1 0
vn 0 -1 0
vn -1 -3.010131E-07 -6.525096E-07
vn -1 -4.013515E-07 -1.52253E-06
vn 1.073328E-07 0.1609977 -0.9869547
vn -1 -2.759287E-07 -4.916459E-13
vn 0 -1 0
vn 2.175034E-07 -1 -1.740025E-06
vn 1 -5.017114E-08 3.787474E-06
vn 1 -3.047073E-07 -3.480131E-06
vn 1 -6.094044E-08 0
vn 1.665149E-07 0.07941137 -0.9968419
vn 1.626122E-07 0.07941136 -0.9968419
vn -1 -9.141043E-08 -1.740028E-06
vn -1 5.676937E-13 -3.480061E-06
vn -1 -2.523902E-07 5.581895E-07
vn 0 -1 0
vn 0 -1 0
vn 1 -6.094042E-08 -1.050337E-07
vn 1 -2.718789E-07 -3.480061E-06
vn 1 2.724926E-13 -1.305021E-06
vn -4.350062E-07 1 7.569218E-13
vn -5.676922E-13 1 6.960111E-06
vn -1 -1.523511E-07 0
vn -1 -4.013489E-07 5.369307E-06
vn -1 -2.742351E-07 1.740026E-06
vn 0 -1 0
vn 0 -1 0
vn 1 3.046717E-08 1.740028E-06
vn 1 -2.327765E-07 -5.776725E-06
vn 1 1.003377E-07 0
vn 0 1 0
vn 0 1 0
vn -2.022341E-07 0.1610015 0.9869542
vn -2.310359E-07 0.1610016 0.9869542
vn -8.325745E-08 0.07940758 0.9968423
vn -1.084082E-07 0.07940761 0.9968423
vn 0 1 0
vn -0.002231456 0.1553214 -0.9878615
vn -0.006985455 0.9937096 0.1117696
vn -0.992256 -1.058415E-07 0.1242091
vn -0.9795842 0.01157316 -0.2007007
vt 0.5377606 0.5416716
vt 0.550016 0.5171607
vt 0.5745269 0.5294161
vt 0.5377606 0.5416716
vt 0.5745269 0.5294161
vt 0.5622715 0.553927
vt 0.4622394 0.5416716
vt 0.4377286 0.553927
vt 0.4254731 0.5294161
vt 0.4622394 0.5416716
vt 0.4254731 0.5294161
vt 0.449984 0.5171607
vt 0.517767 0.5153009
vt 0.514541 0.516453
vt 0.5053241 0.4906455
vt 0.517767 0.5153009
vt 0.5053241 0.4906455
vt 0.50855 0.4894934
vt 0.482233 0.5153009
vt 0.49145 0.4894934
vt 0.493063 0.4900694
vt 0.482233 0.5153009
vt 0.493063 0.4900694
vt 0.483846 0.5158769
vt 0.5371031 0.5379049
vt 0.5398905 0.5359138
vt 0.5558188 0.5582134
vt 0.5371031 0.5379048
vt 0.5558189 0.5582132
vt 0.5544252 0.5592088
vt 0.537103 0.5379049
vt 0.5544249 0.559209
vt 0.5655279 0.5776997
vt 0.4441814 0.5582136
vt 0.4601097 0.5359139
vt 0.4628971 0.537905
vt 0.4628972 0.537905
vt 0.4344723 0.5776999
vt 0.4455752 0.5592091
vt 0.4628972 0.5379051
vt 0.4455753 0.5592092
vt 0.4441816 0.5582137
vt 0.5043539 0.4941019
vt 0.5108058 0.4964061
vt 0.5015888 0.5222136
vt 0.5043538 0.4941019
vt 0.5015886 0.5222136
vt 0.4951368 0.5199094
vt 0.4712594 0.543878
vt 0.4768343 0.5478601
vt 0.4423063 0.5961991
vt 0.4712594 0.543878
vt 0.4423063 0.5961991
vt 0.4367314 0.592217
vt 0.5048632 0.5199094
vt 0.4984113 0.5222136
vt 0.4891943 0.4964061
vt 0.5048632 0.5199094
vt 0.4891944 0.4964061
vt 0.4956462 0.4941019
vt 0.5632687 0.5922169
vt 0.5576938 0.596199
vt 0.5231658 0.54786
vt 0.5632686 0.592217
vt 0.5231658 0.5478601
vt 0.5287406 0.543878
vt 0.4979019 0.4917976
vt 0.5043538 0.4941019
vt 0.4951368 0.5199094
vt 0.4979019 0.4917976
vt 0.4951368 0.5199094
vt 0.4886849 0.5176052
vt 0.5688434 0.588235
vt 0.5632685 0.5922171
vt 0.5287406 0.543878
vt 0.5688434 0.588235
vt 0.5287406 0.543878
vt 0.5343155 0.539896
vt 0.5113151 0.5176051
vt 0.5048632 0.5199094
vt 0.4956462 0.4941019
vt 0.5113151 0.5176051
vt 0.4956462 0.4941019
vt 0.5020981 0.4917976
vt 0.4656844 0.5398959
vt 0.4712593 0.543878
vt 0.4367313 0.592217
vt 0.4656844 0.5398958
vt 0.4367312 0.5922169
vt 0.4311564 0.5882348
vt 0.3973588 0.5370923
vt 0.418063 0.557961
vt 0.4083108 0.5622128
vt 0.4423063 0.5961991
vt 0.4768342 0.5478601
vt 0.4796217 0.5498511
vt 0.4984113 0.5222136
vt 0.4951854 0.5233657
vt 0.4859684 0.4975582
vt 0.4984113 0.5222136
vt 0.4859683 0.4975583
vt 0.4891943 0.4964061
vt 0.5231659 0.54786
vt 0.5576941 0.5961989
vt 0.5501972 0.5886502
vt 0.5231656 0.5478601
vt 0.5501965 0.5886506
vt 0.5488028 0.5896462
vt 0.5231658 0.5478601
vt 0.5488032 0.589646
vt 0.5203783 0.5498511
vt 0.4065047 0.5361927
vt 0.4260239 0.5270175
vt 0.4376817 0.5518183
vt 0.4065047 0.5361927
vt 0.4376817 0.5518183
vt 0.4181625 0.5609935
vt 0.4511966 0.5896458
vt 0.4796216 0.5498511
vt 0.482409 0.5518421
vt 0.4824089 0.551842
vt 0.4664805 0.5741416
vt 0.4650868 0.573146
vt 0.4824092 0.5518422
vt 0.4650872 0.5731462
vt 0.4511968 0.589646
vt 0.4951854 0.5233657
vt 0.4919595 0.5245178
vt 0.4827425 0.4987103
vt 0.4951854 0.5233657
vt 0.4827425 0.4987103
vt 0.4859684 0.4975582
vt 0.5203783 0.5498511
vt 0.5488032 0.589646
vt 0.5349128 0.5731462
vt 0.5203781 0.5498512
vt 0.5349126 0.5731463
vt 0.5335189 0.5741419
vt 0.5203782 0.5498511
vt 0.533519 0.5741417
vt 0.5175908 0.5518422
vt 0.4946758 0.4906455
vt 0.4962888 0.4912215
vt 0.4870718 0.517029
vt 0.4946766 0.4906456
vt 0.4870725 0.5170292
vt 0.4854595 0.5164531
vt 0.4344721 0.5776997
vt 0.462897 0.5379049
vt 0.4656845 0.539896
vt 0.4656848 0.5398962
vt 0.4311572 0.5882355
vt 0.4358664 0.5786957
vt 0.4656846 0.539896
vt 0.435866 0.5786954
vt 0.4344722 0.5776998
vt 0.514541 0.516453
vt 0.5113151 0.5176051
vt 0.5020981 0.4917976
vt 0.514541 0.516453
vt 0.5020981 0.4917976
vt 0.5053241 0.4906455
vt 0.5371031 0.5379049
vt 0.5655281 0.5776995
vt 0.5641344 0.5786951
vt 0.5371028 0.5379052
vt 0.5641337 0.5786957
vt 0.5688428 0.5882355
vt 0.537103 0.5379049
vt 0.5688434 0.588235
vt 0.5343155 0.539896
vt 0.5156446 0.4981343
vt 0.5172575 0.4987103
vt 0.5080405 0.5245178
vt 0.5156446 0.4981343
vt 0.5080405 0.5245178
vt 0.5064276 0.5239418
vt 0.5900568 0.5416055
vt 0.5993748 0.5467395
vt 0.5861503 0.5707415
vt 0.5900568 0.5416055
vt 0.5861503 0.5707415
vt 0.5768322 0.5656074
vt 0.5729702 0.5305061
vt 0.5920525 0.5405583
vt 0.5792803 0.564804
vt 0.5729702 0.5305061
vt 0.5792803 0.564804
vt 0.5601979 0.5547518
vt 0.5140316 0.4975582
vt 0.5048146 0.5233657
vt 0.5032017 0.5227897
vt 0.397307 0.5373849
vt 0.4073109 0.533241
vt 0.4180471 0.5582178
vt 0.512313 0.5278206
vt 0.5225669 0.502642
vt 0.5242731 0.5031049
vt 0.4900464 0.5531147
vt 0.4695968 0.5975378
vt 0.468082 0.5966263
vt 0.4689453 0.5434269
vt 0.432092 0.5753256
vt 0.4230989 0.5813568
o group684660134
g mesh684660134
usemtl mat16
f 3/3/1 2/2/1 1/1/1
f 4/6/2 3/5/2 1/4/2
f 7/9/3 6/8/3 5/7/3
f 8/12/4 7/11/4 5/10/4
f 10/15/5 9/14/5 1/13/5
f 2/18/6 10/17/6 1/16/6
f 11/21/7 3/20/7 4/19/7
f 12/24/8 11/23/8 4/22/8
f 4/27/9 1/26/9 9/25/9
f 12/30/10 4/29/10 9/28/10
f 13/33/11 12/32/11 9/31/11
f 10/36/12 2/35/12 3/34/12
f 11/39/13 14/38/13 10/37/13
f 3/42/14 11/41/14 10/40/14
f 17/45/15 16/44/15 15/43/15
f 18/48/16 17/47/16 15/46/16
f 16/51/17 20/50/17 19/49/17
f 15/54/18 16/53/18 19/52/18
f 20/57/19 22/56/19 21/55/19
f 19/60/20 20/59/20 21/58/20
f 22/63/21 17/62/21 18/61/21
f 21/66/22 22/65/22 18/64/22
f 18/69/23 15/68/23 23/67/23
f 24/72/24 18/71/24 23/70/24
f 21/75/25 18/74/25 24/73/25
f 25/78/26 21/77/26 24/76/26
f 19/81/27 21/80/27 25/79/27
f 26/84/28 19/83/28 25/82/28
f 15/87/29 19/86/29 26/85/29
f 23/90/30 15/89/30 26/88/30
f 17/93/31 27/92/31 16/91/31
f 28/96/32 20/95/32 16/94/32
f 28/99/33 29/98/33 22/97/33
f 20/102/34 28/101/34 22/100/34
f 27/105/35 17/104/35 22/103/35
f 30/108/36 27/107/36 22/106/36
f 29/111/37 30/110/37 22/109/37
f 33/114/38 32/113/38 31/112/38
f 30/117/39 33/116/39 31/115/39
f 8/120/40 28/119/40 31/118/40
f 32/123/41 7/122/41 8/121/41
f 31/126/42 32/125/42 8/124/42
f 8/129/43 5/128/43 29/127/43
f 28/132/44 8/131/44 29/130/44
f 33/135/45 30/134/45 29/133/45
f 6/138/46 33/137/46 29/136/46
f 5/141/47 6/140/47 29/139/47
f 35/144/48 34/143/48 14/142/48
f 13/147/49 35/146/49 14/145/49
f 26/150/50 10/149/50 14/148/50
f 34/153/51 23/152/51 26/151/51
f 14/156/52 34/155/52 26/154/52
f 26/159/53 25/158/53 9/157/53
f 10/162/54 26/161/54 9/160/54
f 35/165/55 13/164/55 9/163/55
f 24/168/56 35/167/56 9/166/56
f 25/171/57 24/170/57 9/169/57
f 6/174/58 7/173/58 32/172/58
f 33/177/59 6/176/59 32/175/59
f 24/180/60 23/179/60 34/178/60
f 35/183/61 24/182/61 34/181/61
f 13/186/62 14/185/62 11/184/62
f 12/189/63 13/188/63 11/187/63
f 27/192/64 30/191/64 31/190/64
f 27/195/65 36/194/65 16/193/65
f 31/198/66 36/197/66 27/196/66
f 36/201/67 31/200/67 28/199/67
f 16/204/68 36/203/68 28/202/68
