{
	"asset": {
		"generator": "Blocks 4.0.1RC0 SVR",
		"version": "1.1",
		"copyright": "Unknown"
	},
	"buffers": {
		"model": {
			"byteLength": 99724,
			"type": "arraybuffer",
			"uri": "model.bin"
		}
	},
	"accessors": {
		"accessor_position_m0-PolyPaper20_-31562": {
			"bufferView": "vec3BufferView",
			"byteOffset": 0,
			"byteStride": 12,
			"componentType": 5126,
			"count": 2326,
			"max": [ 0.1321345, 2.187372, 0.766332 ],
			"min": [ -0.7751179, 1.085927, -0.2734678 ],
			"type": "VEC3"
		 },
		"accessor_normal_m0-PolyPaper20_-31562": {
			"bufferView": "vec3BufferView",
			"byteOffset": 27912,
			"byteStride": 12,
			"componentType": 5126,
			"count": 2326,
			"max": [ 0.9962026, 0.9969065, 0.9993257 ],
			"min": [ -0.9976985, -0.9969065, -0.972766 ],
			"type": "VEC3"
		 },
		"accessor_color_m0-PolyPaper20_-31562": {
			"bufferView": "vec4BufferView",
			"byteOffset": 0,
			"byteStride": 16,
			"componentType": 5126,
			"count": 2326,
			"max": [ 1, 1, 1, 1 ],
			"min": [ 0.2980392, 0.3333333, 0.282353, 1 ],
			"type": "VEC4"
		 },
		"accessor_indices_0_m0-PolyPaper20_-31562": {
			"bufferView": "ushortBufferView",
			"byteOffset": 0,
			"byteStride": 0,
			"componentType": 5123,
			"count": 3342,
			"max": [ 2325 ],
			"min": [ 0 ],
			"type": "SCALAR"
		 }
	},
	"bufferViews": {
		"ushortBufferView": {
			"buffer": "model",
			"byteLength": 6684,
			"byteOffset": 0,
			"target": 34963
		},
		"vec3BufferView": {
			"buffer": "model",
			"byteLength": 55824,
			"byteOffset": 6684,
			"target": 34962
		},
		"vec4BufferView": {
			"buffer": "model",
			"byteLength": 37216,
			"byteOffset": 62508,
			"target": 34962
		}
	},
	"meshes": {
		"mesh_m0-PolyPaper20_-31562": {
			"name": "mesh_m0-PolyPaper20_-31562",
			"primitives": [
				{
					"attributes": {
						"POSITION": "accessor_position_m0-PolyPaper20_-31562",
						"NORMAL": "accessor_normal_m0-PolyPaper20_-31562",
						"COLOR": "accessor_color_m0-PolyPaper20_-31562"
					},
					"indices": "accessor_indices_0_m0-PolyPaper20_-31562",
					"material": "material_mat20",
					"mode": 4
				}
			]
		}
	},
	"shaders": {
		"vertex_mat20": {
			"type": 35633,
			"uri": "https://vr.google.com/shaders/w/vs.glsl"
		},
		"fragment_mat20": {
			"type": 35632,
			"uri": "https://vr.google.com/shaders/w/fs.glsl"
		},
		"vertex_mat24": {
			"type": 35633,
			"uri": "https://vr.google.com/shaders/w/glassVS.glsl"
		},
		"fragment_mat24": {
			"type": 35632,
			"uri": "https://vr.google.com/shaders/w/glassFS.glsl"
		}
	},
	"programs": {
		"program_mat20": {
			"attributes": [
				"a_position",
				"a_normal",
				"a_color"				
			],
			"vertexShader": "vertex_mat20",
			"fragmentShader": "fragment_mat20"
		},
		"program_mat24": {
			"attributes": [
				"a_position",
				"a_normal",
				"a_color"				
			],
			"vertexShader": "vertex_mat24",
			"fragmentShader": "fragment_mat24"
		}
	},
	"techniques": {
		"technique_mat20": {
			"program": "program_mat20",
			"extras": {"gvrss" : "https://vr.google.com/shaders/w/gvrss/paper.json"},
			"parameters": {
				"position": {
					"type": 35665,
					"semantic": "POSITION"
				},
				"normal": {
					"type": 35665,
					"semantic": "NORMAL"
				},
				"color": {
					"type": 35666,
					"semantic": "COLOR"
				},
				"modelViewMatrix": {
					"type": 35676,
					"semantic": "MODELVIEW"
				},
				"projectionMatrix": {
					"type": 35676,
					"semantic": "PROJECTION"
				},
				"normalMatrix": {
					"type": 35675,
					"semantic": "MODELVIEWINVERSETRANSPOSE"
				},
				"color": {
					"type": 35666
				},
				"roughness": {
					"type": 5126
				},
				"metallic": {
					"type": 5126
				},
				"light0Pos": {
					"type": 35666
				},
				"light0Color": {
					"type": 35666
				},
				"light1Pos": {
					"type": 35666
				},
				"light1Color": {
					"type": 35666
				}				
			},
			"attributes": {
				"a_position": "position",
				"a_normal": "normal",
				"a_color": "color"				
			},
			"uniforms": {
				"u_modelViewMatrix": "modelViewMatrix",
				"u_projectionMatrix": "projectionMatrix",
				"u_normalMatrix": "normalMatrix",
				"u_color": "color",
				"u_roughness": "roughness",
				"u_metallic": "metallic",
				"u_light0Pos": "light0Pos",
				"u_light0Color": "light0Color",
				"u_light1Pos": "light1Pos",
				"u_light1Color": "light1Color"				
			},
			"states": {
				"enable": [
					2929,
					2884
				],
				"functions": {
					"cullFace": [1029]
				}
			}
		},
		"technique_mat24": {
			"program": "program_mat24",
			"extras": {"gvrss" : "https://vr.google.com/shaders/w/gvrss/glass.json"},
			"parameters": {
				"position": {
					"type": 35665,
					"semantic": "POSITION"
				},
				"normal": {
					"type": 35665,
					"semantic": "NORMAL"
				},
				"color": {
					"type": 35666,
					"semantic": "COLOR"
				},
				"modelViewMatrix": {
					"type": 35676,
					"semantic": "MODELVIEW"
				},
				"projectionMatrix": {
					"type": 35676,
					"semantic": "PROJECTION"
				},
				"normalMatrix": {
					"type": 35675,
					"semantic": "MODELVIEWINVERSETRANSPOSE"
				},
				"color": {
					"type": 35666
				},
				"roughness": {
					"type": 5126
				},
				"metallic": {
					"type": 5126
				},
				"light0Pos": {
					"type": 35666
				},
				"light0Color": {
					"type": 35666
				},
				"light1Pos": {
					"type": 35666
				},
				"light1Color": {
					"type": 35666
				}				
			},
			"attributes": {
				"a_position": "position",
				"a_normal": "normal",
				"a_color": "color"				
			},
			"uniforms": {
				"u_modelViewMatrix": "modelViewMatrix",
				"u_projectionMatrix": "projectionMatrix",
				"u_normalMatrix": "normalMatrix",
				"u_color": "color",
				"u_roughness": "roughness",
				"u_metallic": "metallic",
				"u_light0Pos": "light0Pos",
				"u_light0Color": "light0Color",
				"u_light1Pos": "light1Pos",
				"u_light1Color": "light1Color"				
			},
			"states": {
				"enable": [
					2929,
					3042
				],
				"functions": {
					"blendFuncSeparate": [775, 774, 773, 772],
					"depthMask": [true]
				}
			}
		}
	},
	"materials": {
		"material_mat20": {
			"technique": "technique_mat20",
			"values": {
				"color": [0.4745098, 0.3333333, 0.282353, 1],
				"roughness": 1,
				"metallic": 0,
				"light0Pos": [-0.02, 4.11, -0.54, 0],
				"light0Color": [1.28, 1.232075, 1.101177, 0],
				"light1Pos": [0.02, -4.11, 0.54, 0],
				"light1Color": [0.2941177, 0.2953672, 0.32, 0]				
			},
			"name": "material_mat20"
		},
		"material_mat24": {
			"technique": "technique_mat24",
			"values": {
				"color": [0.8392157, 0.8392157, 0.8392157, 0.2509804],
				"roughness": 0,
				"metallic": 0,
				"light0Pos": [-0.02, 4.11, -0.54, 0],
				"light0Color": [1.28, 1.232075, 1.101177, 0],
				"light1Pos": [0.02, -4.11, 0.54, 0],
				"light1Color": [0.2941177, 0.2953672, 0.32, 0]				
			},
			"name": "material_mat24"
		}
	},
	"nodes": {
		"node_MeshObject-326191104-PolyPaper20": {
			"name": "node_MeshObject-326191104-PolyPaper20",
			"meshes": [
				"mesh_m0-PolyPaper20_-31562"
			],
			"matrix": [1, 0, 0, 0, 0, 1, 0, 0, 0, 0, 1, 0, 0, 0, 0, 1]
		}
	},
	"scene": "defaultScene",
	"scenes": {
		"defaultScene": {
			"nodes": [
				"node_MeshObject-326191104-PolyPaper20"
			],
			"extras": {

			}
		}
	}
}