mtllib materials.mtl
v 0.1133334 0.01333332 0.2333333
v 0.05833337 0.01333332 0.2333334
v 0.05833337 0.04833329 0.2183334
v 0.1133334 0.04833329 0.2183334
v 0.1133334 0.01333332 -0.1666667
v 0.1133334 0.09333324 -0.1666667
v 0.1133334 0.06333327 -0.236667
v 0.1133334 0.01333332 -0.2666667
v 0.1133334 0.01333332 0.1333334
v 0.1133334 0.01333332 0.03333333
v 0.1133334 0.01333332 -0.06666669
v -0.1066666 0.01333332 -0.1666667
v -0.1066667 0.01333332 -0.06666672
v -0.1066667 0.01333332 0.03333333
v -0.1066667 0.01333332 0.1333334
v -0.1066667 0.01333332 0.2333333
v -0.05166665 0.01333332 0.2333334
v 0.00333336 0.01333332 0.2333334
v 0.1133334 0.1333333 0.1333334
v 0.1133334 0.08333325 0.2033334
v 0.05833337 0.08333325 0.2033334
v 0.00333336 0.08333325 0.2033334
v -0.05166665 0.08333325 0.2033334
v -0.1066667 0.08333325 0.2033334
v -0.1066667 0.1333333 0.1333334
v -0.1066667 0.04833329 0.2183334
v -0.09666672 0.1633333 0.03333333
v 0.1233334 0.1633333 0.03333333
v 0.1133334 0.1233332 -0.06666672
v -0.1066667 0.1233332 -0.06666675
v -0.1066666 0.09333324 -0.1666667
v -0.1066667 0.06333327 -0.236667
v -0.05166665 0.06333327 -0.2366671
v 0.00333336 0.06333327 -0.2366671
v 0.05833337 0.06333327 -0.2366671
v -0.1066666 0.01333332 -0.2666667
v 0.05833343 0.01333332 -0.2666668
v 0.00333342 0.01333332 -0.2666668
v -0.05166659 0.01333332 -0.2666669
v -0.05166668 0.04833329 0.2183334
v 0.00333336 0.04833329 0.2183334
v -0.07666671 -0.00666678 0.1033333
v -0.07666668 0.0133332 0.1033333
v -0.07666668 0.0133332 0.1833333
v -0.07666671 -0.00666678 0.1833333
v 0.07333335 -0.00666678 0.1033333
v 0.07333335 -0.00666678 0.1833333
v 0.07333335 0.0133332 0.1833333
v 0.07333335 0.0133332 0.1033333
v -0.07666668 -0.00666678 -0.2166667
v -0.07666665 0.0133332 -0.2166667
v -0.07666665 0.0133332 -0.1366667
v -0.07666668 -0.00666678 -0.1366667
v 0.07333335 -0.00666678 -0.2166667
v 0.07333335 -0.00666678 -0.1366667
v 0.07333335 0.0133332 -0.1366667
v 0.07333335 0.0133332 -0.2166667
vn 1.245121E-06 0.3939193 0.919145
vn 9.881267E-07 0.393919 0.9191452
vn 1 0 0
vn 1 0 0
vn 0 -1 0
vn 0 -1 0
vn 0 -1 0
vn 0 -1 0
vn 0 -1 0
vn 0 -1 0
vn 0 -1 0
vn 0 -1 0
vn 0 -1 0
vn 0 -1 0
vn 0 -1 0
vn 6.450185E-07 0.8137328 0.5812391
vn -3.22509E-07 0.8137332 0.5812386
vn 1.612546E-07 0.8137328 0.5812391
vn -6.450166E-07 0.8137336 0.5812379
vn -7.873756E-08 0.8137328 0.581239
vn 1 -1.447543E-06 5.960464E-07
vn 1 1.447543E-06 -5.960463E-07
vn 1 4.967051E-07 3.547902E-07
vn -1 -1.575267E-06 2.980233E-07
vn -1 -4.967053E-07 -1.4609E-07
vn -1 1.753084E-06 2.103701E-06
vn 0 0.9578264 0.2873474
vn -3.892551E-08 0.9578264 0.2873473
vn 1 0 0
vn 1 4.967054E-07 0
vn 1 0 0
vn 1 0 0
vn -1 -2.709305E-07 0
vn -1 0 -5.960467E-07
vn -1 -2.709307E-07 -8.127911E-07
vn -1 -4.967052E-07 -2.980231E-07
vn 5.464273E-08 0.9191459 -0.3939173
vn 0 0.9191459 -0.3939175
vn 0 1 0
vn 0 -1 0
vn 0 1 0
vn -1 0 2.980231E-07
vn -1 -2.636336E-06 2.407088E-06
vn 0 -1 0
vn 0 -1 0
vn 0 -1 0
vn 0 -1 0
vn 0 -1 0
vn 0.9946214 -0.06630804 0.07957015
vn -0.9946215 0.06630766 -0.07957001
vn 9.292848E-07 0.5144928 -0.8574948
vn 9.218505E-07 0.5144928 -0.8574948
vn -9.292848E-07 0.5144928 -0.8574948
vn 0 0.514492 -0.8574951
vn 2.490241E-07 0.3939193 0.919145
vn 5.100011E-07 0.3939197 0.9191449
vn -2.490241E-07 0.3939196 0.9191449
vn -4.940638E-07 0.3939193 0.919145
vn -1.494145E-06 0.3939187 0.9191453
vn -1.004065E-06 0.3939193 0.919145
vn -4.980482E-07 0.3939196 0.9191449
vn -4.940637E-07 0.3939196 0.9191449
vn 2.490241E-07 0.3939196 0.9191449
vn 4.940634E-07 0.39392 0.9191447
vn 5.151795E-08 0.9284766 -0.3713911
vn 0 0.9284765 -0.3713911
vn 2.989486E-08 0.9578263 -0.2873478
vn 3.892558E-08 0.9578263 -0.2873478
vn 1.843699E-06 0.5144928 -0.8574948
vn 9.292852E-07 0.514492 -0.8574951
vn 0.9951248 -0.0663416 -0.07297566
vn -0.9951248 0.06634121 0.07297549
vn -1.858569E-06 0.5144928 -0.8574948
vn -1.8437E-06 0.5144928 -0.8574948
vn -9.881268E-07 0.39392 0.9191447
vn -9.960955E-07 0.39392 0.9191447
vn 9.960963E-07 0.3939196 0.9191449
vn 1.004064E-06 0.3939197 0.9191449
vn -1 1.490117E-06 0
vn -1 1.490118E-06 0
vn 1 0 0
vn 1 0 0
vn 0 0 -1
vn 0 0 -1
vn 0 1.490117E-06 1
vn 0 1.490118E-06 1
vn 0 -1 0
vn 0 -1 0
vn 0 1 0
vn 0 1 0
vn -1 1.490118E-06 0
vn -1 1.490118E-06 0
vn 1 0 0
vn 1 0 0
vn 0 0 -1
vn 0 0 -1
vn 0 1.490118E-06 1
vn 0 1.490117E-06 1
vn 0 -1 0
vn 0 -1 0
vn 0 1 0
vn 0 1 0
vt 0.5442124 0.559779
vt 0.5456277 0.5574211
vt 0.5472601 0.558401
vt 0.5442124 0.559779
vt 0.5472602 0.558401
vt 0.5458449 0.5607589
vt 0.5229008 0.5733523
vt 0.5252258 0.5766072
vt 0.5215058 0.5774209
vt 0.5229008 0.5733523
vt 0.5215058 0.5774209
vt 0.5188321 0.5762585
vt 0.5058186 0.528185
vt 0.5011099 0.5298667
vt 0.4964012 0.5315484
vt 0.5058186 0.528185
vt 0.4964012 0.5315484
vt 0.4916925 0.5332301
vt 0.5058186 0.528185
vt 0.4916925 0.5332301
vt 0.4869838 0.5349118
vt 0.5058186 0.528185
vt 0.4869838 0.5349118
vt 0.4832841 0.5245526
vt 0.5058186 0.528185
vt 0.4832841 0.5245526
vt 0.4879928 0.5228709
vt 0.5058186 0.528185
vt 0.4879928 0.5228709
vt 0.4927015 0.5211892
vt 0.5058186 0.528185
vt 0.4927015 0.5211892
vt 0.4974102 0.5195075
vt 0.5058186 0.528185
vt 0.4974102 0.5195075
vt 0.5021189 0.5178258
vt 0.5058186 0.528185
vt 0.5021189 0.5178258
vt 0.5030438 0.5204156
vt 0.5058186 0.528185
vt 0.5030438 0.5204156
vt 0.5039688 0.5230054
vt 0.5058186 0.528185
vt 0.5039688 0.5230054
vt 0.5048937 0.5255952
vt 0.531709 0.5513949
vt 0.5279903 0.5492336
vt 0.5293723 0.546856
vt 0.531709 0.551395
vt 0.5293722 0.546856
vt 0.5307541 0.5444785
vt 0.531709 0.551395
vt 0.5307542 0.5444785
vt 0.5321361 0.5421009
vt 0.5317089 0.551395
vt 0.532136 0.5421009
vt 0.533518 0.5397233
vt 0.531709 0.551395
vt 0.5335181 0.5397233
vt 0.5372367 0.5418848
vt 0.5351068 0.5646337
vt 0.5391755 0.5617276
vt 0.5395823 0.5635875
vt 0.5351068 0.5646336
vt 0.5395824 0.5635874
vt 0.5399892 0.5654473
vt 0.5351068 0.5646337
vt 0.5399892 0.5654474
vt 0.5385942 0.5695161
vt 0.4604176 0.5635874
vt 0.4608245 0.5617274
vt 0.4648932 0.5646336
vt 0.4604176 0.5635874
vt 0.4648932 0.5646337
vt 0.4614058 0.5695161
vt 0.4604179 0.5635877
vt 0.461406 0.5695162
vt 0.4600111 0.5654476
vt 0.5205266 0.5294263
vt 0.5250037 0.5321569
vt 0.5201974 0.5420513
vt 0.5205266 0.5294263
vt 0.5201974 0.5420513
vt 0.5157203 0.5393207
vt 0.5301663 0.5749216
vt 0.5269694 0.5704461
vt 0.5310381 0.5675399
vt 0.5385942 0.5695161
vt 0.5310382 0.5675399
vt 0.5351068 0.5646337
vt 0.5301663 0.5749216
vt 0.5252258 0.5766072
vt 0.5229008 0.5733523
vt 0.5301663 0.5749216
vt 0.5229008 0.5733523
vt 0.5269694 0.5704461
vt 0.4689619 0.5675399
vt 0.4730305 0.5704461
vt 0.4698337 0.5749216
vt 0.4730305 0.5704461
vt 0.4770992 0.5733523
vt 0.4747742 0.5766072
vt 0.4730305 0.570446
vt 0.4747742 0.5766072
vt 0.4698337 0.5749215
vt 0.4648932 0.5646337
vt 0.4689618 0.5675399
vt 0.4614057 0.5695161
vt 0.4918633 0.5276762
vt 0.4880879 0.5271805
vt 0.48952 0.5162741
vt 0.4918633 0.5276762
vt 0.4895199 0.5162741
vt 0.4932954 0.5167699
vt 0.520012 0.5257297
vt 0.5190871 0.5283195
vt 0.5181622 0.5309093
vt 0.479988 0.5257297
vt 0.4818378 0.5309093
vt 0.4827628 0.5334991
vt 0.520012 0.5257297
vt 0.5172372 0.5334991
vt 0.5163123 0.5360889
vt 0.4747743 0.5766072
vt 0.4770992 0.5733523
vt 0.4811679 0.5762585
vt 0.4747743 0.5766072
vt 0.4811679 0.5762584
vt 0.4784943 0.5774209
vt 0.4785754 0.5262343
vt 0.4832841 0.5245526
vt 0.4869838 0.5349118
vt 0.4785754 0.5262343
vt 0.4869838 0.5349118
vt 0.4822751 0.5365934
vt 0.4822751 0.5365934
vt 0.4813502 0.5340036
vt 0.4804252 0.5314138
vt 0.4804252 0.5314138
vt 0.4795003 0.528824
vt 0.4785754 0.5262343
vt 0.4804252 0.5314138
vt 0.4785754 0.5262343
vt 0.4822751 0.5365934
vt 0.5404724 0.5706741
vt 0.5374191 0.5749376
vt 0.5328506 0.5689687
vt 0.4669006 0.5678568
vt 0.4623321 0.5738258
vt 0.4592788 0.5695622
vt 0.4563341 0.5343783
vt 0.4556797 0.5317073
vt 0.4585114 0.5310135
vt 0.4563341 0.5343783
vt 0.4585114 0.5310135
vt 0.4591658 0.5336846
vt 0.4569885 0.5370494
vt 0.4563341 0.5343784
vt 0.4591659 0.5336847
vt 0.4569885 0.5370494
vt 0.4591658 0.5336846
vt 0.4598202 0.5363556
vt 0.547043 0.5550634
vt 0.5484583 0.5527055
vt 0.5500907 0.5536854
vt 0.547043 0.5550634
vt 0.5500907 0.5536854
vt 0.5486754 0.5560432
vt 0.5456277 0.5574212
vt 0.547043 0.5550634
vt 0.5486754 0.5560433
vt 0.5456277 0.5574212
vt 0.5486754 0.5560433
vt 0.5472601 0.5584011
vt 0.5484583 0.5527056
vt 0.5498736 0.5503477
vt 0.551506 0.5513276
vt 0.5484583 0.5527055
vt 0.551506 0.5513276
vt 0.5500907 0.5536854
vt 0.5503078 0.5570231
vt 0.5488925 0.5593809
vt 0.5472601 0.5584011
vt 0.5503078 0.5570231
vt 0.5472601 0.5584011
vt 0.5486754 0.5560433
vt 0.5517232 0.5546653
vt 0.5503079 0.5570231
vt 0.5486754 0.5560433
vt 0.5517231 0.5546653
vt 0.5486754 0.5560432
vt 0.5500907 0.5536854
vt 0.48068 0.5153717
vt 0.4860809 0.5156544
vt 0.4844928 0.5265392
vt 0.48068 0.5153717
vt 0.4844928 0.5265392
vt 0.4790919 0.5262565
vt 0.4923195 0.5163172
vt 0.4974398 0.5173331
vt 0.4952991 0.5281228
vt 0.4923195 0.5163172
vt 0.4952991 0.5281228
vt 0.4901787 0.5271069
vt 0.4604746 0.5390265
vt 0.4576429 0.5397203
vt 0.4569885 0.5370493
vt 0.4604746 0.5390266
vt 0.4569885 0.5370494
vt 0.4598202 0.5363556
vt 0.5227888 0.57222
vt 0.5261797 0.5789283
vt 0.5207902 0.5793793
vt 0.4802547 0.5790876
vt 0.4748652 0.5786366
vt 0.4782561 0.5719283
vt 0.4556798 0.5317075
vt 0.4550254 0.5290365
vt 0.4578571 0.5283427
vt 0.4556798 0.5317075
vt 0.4578571 0.5283427
vt 0.4585115 0.5310137
vt 0.551506 0.5513276
vt 0.5531384 0.5523075
vt 0.5517231 0.5546653
vt 0.551506 0.5513276
vt 0.5517231 0.5546653
vt 0.5500907 0.5536854
vt 0.5488926 0.5593809
vt 0.5474772 0.5617388
vt 0.5458448 0.5607589
vt 0.5488926 0.5593809
vt 0.5458448 0.5607589
vt 0.5472601 0.558401
vt 0.4666951 0.5646919
vt 0.4661139 0.5655056
vt 0.4628589 0.5631807
vt 0.4666951 0.5646919
vt 0.4628589 0.5631807
vt 0.4634402 0.5623669
vt 0.5333049 0.5646918
vt 0.5365599 0.5623668
vt 0.5371411 0.5631806
vt 0.5333049 0.5646918
vt 0.5371411 0.5631806
vt 0.5338862 0.5655056
vt 0.4440983 0.5491935
vt 0.4474524 0.5559017
vt 0.446558 0.5563489
vt 0.4440983 0.5491935
vt 0.446558 0.5563489
vt 0.4432039 0.5496407
vt 0.5559017 0.5491935
vt 0.5567961 0.5496407
vt 0.553442 0.5563489
vt 0.5559017 0.5491935
vt 0.553442 0.5563489
vt 0.5525476 0.5559017
vt 0.4965021 0.5214247
vt 0.5002691 0.5200793
vt 0.5027916 0.5271423
vt 0.4965021 0.5214247
vt 0.5027916 0.5271423
vt 0.4990246 0.5284877
vt 0.5034979 0.5214247
vt 0.5009754 0.5284877
vt 0.4972084 0.5271423
vt 0.5034979 0.5214247
vt 0.4972084 0.5271423
vt 0.4997309 0.5200793
vt 0.4797149 0.5739917
vt 0.4791336 0.5748054
vt 0.4758787 0.5724804
vt 0.4797149 0.5739917
vt 0.4758787 0.5724804
vt 0.47646 0.5716667
vt 0.5202852 0.5739917
vt 0.5235401 0.5716667
vt 0.5241214 0.5724804
vt 0.5202852 0.5739917
vt 0.5241214 0.5724804
vt 0.5208665 0.5748054
vt 0.4440983 0.5491935
vt 0.4474524 0.5559017
vt 0.446558 0.5563489
vt 0.4440983 0.5491935
vt 0.446558 0.5563489
vt 0.4432039 0.5496407
vt 0.5559017 0.5491935
vt 0.5567961 0.5496408
vt 0.553442 0.5563489
vt 0.5559017 0.5491935
vt 0.553442 0.5563489
vt 0.5525476 0.5559018
vt 0.4814342 0.526806
vt 0.4852012 0.5254607
vt 0.4877237 0.5325238
vt 0.4814342 0.526806
vt 0.4877237 0.5325238
vt 0.4839568 0.5338691
vt 0.5185658 0.526806
vt 0.5160432 0.5338691
vt 0.5122763 0.5325238
vt 0.5185658 0.526806
vt 0.5122763 0.5325238
vt 0.5147988 0.5254607
o group1837334045
g mesh1837334045
usemtl mat5
f 3/3/1 2/2/1 1/1/1
f 4/6/2 3/5/2 1/4/2
f 7/9/3 6/8/3 5/7/3
f 8/12/4 7/11/4 5/10/4
f 10/15/5 9/14/5 1/13/5
f 11/18/6 10/17/6 1/16/6
f 5/21/7 11/20/7 1/19/7
f 12/24/8 5/23/8 1/22/8
f 13/27/9 12/26/9 1/25/9
f 14/30/10 13/29/10 1/28/10
f 15/33/11 14/32/11 1/31/11
f 16/36/12 15/35/12 1/34/12
f 17/39/13 16/38/13 1/37/13
f 18/42/14 17/41/14 1/40/14
f 2/45/15 18/44/15 1/43/15
f 21/48/16 20/47/16 19/46/16
f 22/51/17 21/50/17 19/49/17
f 23/54/18 22/53/18 19/52/18
f 24/57/19 23/56/19 19/55/19
f 25/60/20 24/59/20 19/58/20
f 4/63/21 1/62/21 9/61/21
f 20/66/22 4/65/22 9/64/22
f 19/69/23 20/68/23 9/67/23
f 15/72/24 16/71/24 26/70/24
f 25/75/25 15/74/25 26/73/25
f 24/78/26 25/77/26 26/76/26
f 28/81/27 27/80/27 25/79/27
f 19/84/28 28/83/28 25/82/28
f 10/87/29 11/86/29 29/85/29
f 9/90/30 10/89/30 19/88/30
f 5/93/31 6/92/31 29/91/31
f 11/96/32 5/95/32 29/94/32
f 30/99/33 13/98/33 14/97/33
f 31/102/34 12/101/34 13/100/34
f 30/105/35 31/104/35 13/103/35
f 25/108/36 14/107/36 15/106/36
f 31/111/37 6/110/37 7/109/37
f 32/114/38 31/113/38 7/112/38
f 34/117/39 33/116/39 32/115/39
f 35/120/40 34/119/40 32/118/40
f 7/123/41 35/122/41 32/121/41
f 36/126/42 12/125/42 31/124/42
f 32/129/43 36/128/43 31/127/43
f 5/132/44 12/131/44 36/130/44
f 8/135/45 5/134/45 36/133/45
f 38/138/46 37/137/46 8/136/46
f 36/141/47 39/140/47 38/139/47
f 8/144/48 36/143/48 38/142/48
f 10/147/49 28/146/49 19/145/49
f 25/150/50 27/149/50 14/148/50
f 39/153/51 33/152/51 34/151/51
f 38/156/52 39/155/52 34/154/52
f 38/159/53 34/158/53 35/157/53
f 37/162/54 38/161/54 35/160/54
f 40/165/55 17/164/55 18/163/55
f 41/168/56 40/167/56 18/166/56
f 41/171/57 18/170/57 2/169/57
f 3/174/58 41/173/58 2/172/58
f 26/177/59 16/176/59 17/175/59
f 40/180/60 26/179/60 17/178/60
f 3/183/61 21/182/61 22/181/61
f 41/186/62 3/185/62 22/184/62
f 41/189/63 22/188/63 23/187/63
f 40/192/64 41/191/64 23/190/64
usemtl mat21
f 29/195/65 30/194/65 27/193/65
f 28/198/66 29/197/66 27/196/66
f 6/201/67 31/200/67 30/199/67
f 29/204/68 6/203/68 30/202/68
f 35/207/69 7/206/69 8/205/69
f 37/210/70 35/209/70 8/208/70
f 29/213/71 28/212/71 10/211/71
f 14/216/72 27/215/72 30/214/72
f 36/219/73 32/218/73 33/217/73
f 39/222/74 36/221/74 33/220/74
f 23/225/75 24/224/75 26/223/75
f 40/228/76 23/227/76 26/226/76
f 4/231/77 20/230/77 21/229/77
f 3/234/78 4/233/78 21/232/78
o group767028742
g mesh767028742
usemtl mat21
f 44/237/79 43/236/79 42/235/79
f 45/240/80 44/239/80 42/238/80
f 48/243/81 47/242/81 46/241/81
f 49/246/82 48/245/82 46/244/82
f 49/249/83 46/248/83 42/247/83
f 43/252/84 49/251/84 42/250/84
f 48/255/85 44/254/85 45/253/85
f 47/258/86 48/257/86 45/256/86
f 47/261/87 45/260/87 42/259/87
f 46/264/88 47/263/88 42/262/88
f 48/267/89 49/266/89 43/265/89
f 44/270/90 48/269/90 43/268/90
o group664196543
g mesh664196543
usemtl mat21
f 52/273/91 51/272/91 50/271/91
f 53/276/92 52/275/92 50/274/92
f 56/279/93 55/278/93 54/277/93
f 57/282/94 56/281/94 54/280/94
f 57/285/95 54/284/95 50/283/95
f 51/288/96 57/287/96 50/286/96
f 56/291/97 52/290/97 53/289/97
f 55/294/98 56/293/98 53/292/98
f 55/297/99 53/296/99 50/295/99
f 54/300/100 55/299/100 50/298/100
f 56/303/101 57/302/101 51/301/101
f 52/306/102 56/305/102 51/304/102
